<?xml version="1.0" encoding="UTF-8" standalone="no"?>
<svg
   xmlns:dc="http://purl.org/dc/elements/1.1/"
   xmlns:cc="http://creativecommons.org/ns#"
   xmlns:rdf="http://www.w3.org/1999/02/22-rdf-syntax-ns#"
   xmlns:svg="http://www.w3.org/2000/svg"
   xmlns="http://www.w3.org/2000/svg"
   xmlns:sodipodi="http://sodipodi.sourceforge.net/DTD/sodipodi-0.dtd"
   xmlns:inkscape="http://www.inkscape.org/namespaces/inkscape"
   width="148"
   height="360"
   version="1.2"
   id="svg106"
   sodipodi:docname="GrandStaffHead.svg"
   inkscape:version="0.92.2 (5c3e80d, 2017-08-06)">
  <metadata
     id="metadata164">
    <rdf:RDF>
      <cc:Work
         rdf:about="">
        <dc:format>image/svg+xml</dc:format>
        <dc:type
           rdf:resource="http://purl.org/dc/dcmitype/StillImage" />
      </cc:Work>
    </rdf:RDF>
  </metadata>
  <defs
     id="defs162" />
  <sodipodi:namedview
     pagecolor="#ffffff"
     bordercolor="#666666"
     borderopacity="1"
     objecttolerance="10"
     gridtolerance="10"
     guidetolerance="10"
     inkscape:pageopacity="0"
     inkscape:pageshadow="2"
     inkscape:window-width="1920"
     inkscape:window-height="1001"
     id="namedview160"
     showgrid="false"
     inkscape:zoom="0.65555556"
     inkscape:cx="74"
     inkscape:cy="180"
     inkscape:window-x="-9"
     inkscape:window-y="-9"
     inkscape:window-maximized="1"
     inkscape:current-layer="svg106" />
  <!--line x1="148" y1="0" x2="148" y2="200" stroke="black" stroke-width="1"></line -->
  <polyline
     class="StaffLines"
     points="25,84 148,84"
     style="stroke:#000000;stroke-width:2"
     id="polyline130" />
  <polyline
     class="StaffLines"
     points="25,99 148,99"
     style="stroke:#000000;stroke-width:2"
     id="polyline132" />
  <polyline
     class="StaffLines"
     points="25,114 148,114"
     style="stroke:#000000;stroke-width:2"
     id="polyline134" />
  <polyline
     class="StaffLines"
     points="25,129 148,129"
     style="stroke:#000000;stroke-width:2"
     id="polyline136" />
  <polyline
     class="StaffLines"
     points="25,144 148,144"
     style="stroke:#000000;stroke-width:2"
     id="polyline138" />
  <polyline
     class="StaffLines"
     points="25,242 148,242"
     style="stroke:#000000;stroke-width:2"
     id="polyline140" />
  <polyline
     class="StaffLines"
     points="25,257 148,257"
     style="stroke:#000000;stroke-width:2"
     id="polyline142" />
  <polyline
     class="StaffLines"
     points="25,272 148,272"
     style="stroke:#000000;stroke-width:2"
     id="polyline144" />
  <polyline
     class="StaffLines"
     points="25,287 148,287"
     style="stroke:#000000;stroke-width:2"
     id="polyline146" />
  <polyline
     class="StaffLines"
     points="25,302 148,302"
     style="stroke:#000000;stroke-width:2"
     id="polyline148" />
  <polyline
     class="BarLine"
     points="25,84 25,302"
     style="stroke:#000000;stroke-width:2"
     id="polyline150" />
  <!-- path
     class="Clef"
     d="m 71,252 c -0.5859,-0.585 -0.878698,-1.308 -0.878698,-2.166 0,-0.861 0.292798,-1.584 0.878698,-2.169 0.5862,-0.585 1.3086,-0.879 2.1681,-0.879 0.8595,0 1.5819,0.294 2.1681,0.879 0.5859,0.585 0.8787,1.308 0.8787,2.169 0,0.858 -0.2928,1.581 -0.8787,2.166 -0.5862,0.585 -1.3086,0.879 -2.1681,0.879 -0.8595,0 -1.5819,-0.294 -2.1681,-0.879 m 0,15 c -0.5859,-0.585 -0.878698,-1.308 -0.878698,-2.166 0,-0.861 0.292798,-1.584 0.878698,-2.169 0.5862,-0.585 1.3086,-0.879 2.1681,-0.879 0.8595,0 1.5819,0.294 2.1681,0.879 0.5859,0.585 0.8787,1.308 0.8787,2.169 0,0.858 -0.2928,1.581 -0.8787,2.166 -0.5862,0.585 -1.3086,0.879 -2.1681,0.879 -0.8595,0 -1.5819,-0.294 -2.1681,-0.879 M 51.1452,241.70041 c 5.1954,0 9.453,1.308 12.7734,3.924 3.2031,2.736 4.8048,6.447 4.8048,11.133 0,3.165 -0.6252,6.054 -1.875,8.673 -1.1718,2.733 -2.715,5.157 -4.629,7.266 -1.953,2.148 -4.3164,4.179 -7.0899,6.093 -2.6952,1.875 -5.4687,3.555 -8.3202,5.04 -5.7813,2.928 -8.9844,4.392 -9.6093,4.392 -0.5079,0 -0.7617,-0.252 -0.7617,-0.759 0,-0.198 0.078,-0.372 0.2343,-0.528 1.992,-1.173 4.4334,-2.676 7.3242,-4.512 1.875,-1.212 4.0626,-2.892 6.5625,-5.04 2.4219,-2.031 4.2969,-3.945 5.625,-5.742 1.3671,-1.758 2.6172,-3.945 3.75,-6.561 0.9765,-2.619 1.4649,-5.196 1.4649,-7.737 0,-3.789 -0.9375,-7.089 -2.8125,-9.9 -1.875,-2.814 -4.3557,-4.221 -7.4415,-4.221 -2.1876,0 -4.0626,0.705 -5.625,2.112 -1.6797,1.443 -2.8905,3.261 -3.6327,5.448 0.7422,-0.312 1.4256,-0.468 2.0508,-0.468 1.6404,0 3.0468,0.585 4.2186,1.758 1.1718,1.248 1.7577,2.676 1.7577,4.275 0,1.68 -0.5664,3.186 -1.6992,4.512 -1.2108,1.212 -2.6367,1.818 -4.2771,1.818 -1.758,0 -3.3399,-0.606 -4.7463,-1.818 -1.3281,-1.326 -1.992,-2.832 -1.992,-4.512 0,-4.023 1.3671,-7.461 4.1016,-10.311 2.6952,-2.892 5.9763,-4.335 9.8436,-4.335"
     id="path88"
     inkscape:connector-curvature="0"
     style="stroke-width:3" / -->
  <path
     class="Bracket"
     d="m 18.9255,161.08546 c 0,-17.74597 -12.0684,-34.99551 -12.0684,-51.99652 0,-8.56263 3.2913,-16.87735 13.44,-24.323134 0.1371,-0.09297 0.2055,-0.248222 0.2055,-0.341193 0,-0.279212 -0.7542,-0.527436 -1.3026,-0.527436 -0.2745,0 -0.7545,0.03099 -1.0974,0.248224 C 4.9371,93.700929 0.5484,104.74549 0.5484,115.91402 c 0,17.9942 12.8916,35.36769 12.8916,52.61723 0,8.56264 -3.2916,16.62883 -13.44,24.07461 v 0.24823 0.24821 c 10.1484,7.4461 13.44,15.5126 13.44,24.07432 0,17.25105 -12.8916,34.62363 -12.8916,52.61602 0,11.17156 4.3887,22.21552 17.5542,31.77074 0.3429,0.21572 0.8229,0.2461 1.0974,0.2461 0.5484,0 1.3026,-0.2461 1.3026,-0.52561 0,-0.0942 -0.0684,-0.24914 -0.2055,-0.34028 -10.1487,-7.4467 -13.44,-15.76233 -13.44,-24.32406 0,-17.00192 12.0684,-34.24993 12.0684,-51.99622 0,-11.29309 -4.3884,-22.09095 -17.28,-31.76922 12.8916,-9.6795 17.28,-20.47584 17.28,-31.76863"
     id="path104"
     inkscape:connector-curvature="0"
     style="fill-rule:evenodd;stroke-width:3" />
</svg>
