<?xml version="1.0" encoding="UTF-8" standalone="no"?>
<svg
   xmlns:dc="http://purl.org/dc/elements/1.1/"
   xmlns:cc="http://creativecommons.org/ns#"
   xmlns:rdf="http://www.w3.org/1999/02/22-rdf-syntax-ns#"
   xmlns:svg="http://www.w3.org/2000/svg"
   xmlns="http://www.w3.org/2000/svg"
   xmlns:sodipodi="http://sodipodi.sourceforge.net/DTD/sodipodi-0.dtd"
   xmlns:inkscape="http://www.inkscape.org/namespaces/inkscape"
   width="148"
   height="360"
   version="1.2"
   id="svg106"
   sodipodi:docname="GrandStaffHead.svg"
   inkscape:version="0.92.2 (5c3e80d, 2017-08-06)">
  <!--line x1="148" y1="0" x2="148" y2="200" stroke="black" stroke-width="1"></line -->
  <polyline
     class="StaffLines"
     points="25,84 148,84"
     style="stroke:#000000;stroke-width:2" />
  <polyline
     class="StaffLines"
     points="25,99 148,99"
     style="stroke:#000000;stroke-width:2" />
  <polyline
     class="StaffLines"
     points="25,114 148,114"
     style="stroke:#000000;stroke-width:2" />
  <polyline
     class="StaffLines"
     points="25,129 148,129"
     style="stroke:#000000;stroke-width:2" />
  <polyline
     class="StaffLines"
     points="25,144 148,144"
     style="stroke:#000000;stroke-width:2" />
  <polyline
     class="StaffLines"
     points="25,242 148,242"
     style="stroke:#000000;stroke-width:2" />
  <polyline
     class="StaffLines"
     points="25,257 148,257"
     style="stroke:#000000;stroke-width:2" />
  <polyline
     class="StaffLines"
     points="25,272 148,272"
     style="stroke:#000000;stroke-width:2" />
  <polyline
     class="StaffLines"
     points="25,287 148,287"
     style="stroke:#000000;stroke-width:2" />
  <polyline
     class="StaffLines"
     points="25,302 148,302"
     style="stroke:#000000;stroke-width:2" />
  <polyline
     class="BarLine"
     points="25,84 25,302"
     style="stroke:#000000;stroke-width:2" />
  <path
     class="Clef"
     d="m 71.477098,252.12841 c -0.5859,-0.585 -0.878698,-1.308 -0.878698,-2.166 0,-0.861 0.292798,-1.584 0.878698,-2.169 0.5862,-0.585 1.3086,-0.879 2.1681,-0.879 0.8595,0 1.5819,0.294 2.1681,0.879 0.5859,0.585 0.8787,1.308 0.8787,2.169 0,0.858 -0.2928,1.581 -0.8787,2.166 -0.5862,0.585 -1.3086,0.879 -2.1681,0.879 -0.8595,0 -1.5819,-0.294 -2.1681,-0.879 m 0,15 c -0.5859,-0.585 -0.878698,-1.308 -0.878698,-2.166 0,-0.861 0.292798,-1.584 0.878698,-2.169 0.5862,-0.585 1.3086,-0.879 2.1681,-0.879 0.8595,0 1.5819,0.294 2.1681,0.879 0.5859,0.585 0.8787,1.308 0.8787,2.169 0,0.858 -0.2928,1.581 -0.8787,2.166 -0.5862,0.585 -1.3086,0.879 -2.1681,0.879 -0.8595,0 -1.5819,-0.294 -2.1681,-0.879 M 51.1452,241.70041 c 5.1954,0 9.453,1.308 12.7734,3.924 3.2031,2.736 4.8048,6.447 4.8048,11.133 0,3.165 -0.6252,6.054 -1.875,8.673 -1.1718,2.733 -2.715,5.157 -4.629,7.266 -1.953,2.148 -4.3164,4.179 -7.0899,6.093 -2.6952,1.875 -5.4687,3.555 -8.3202,5.04 -5.7813,2.928 -8.9844,4.392 -9.6093,4.392 -0.5079,0 -0.7617,-0.252 -0.7617,-0.759 0,-0.198 0.078,-0.372 0.2343,-0.528 1.992,-1.173 4.4334,-2.676 7.3242,-4.512 1.875,-1.212 4.0626,-2.892 6.5625,-5.04 2.4219,-2.031 4.2969,-3.945 5.625,-5.742 1.3671,-1.758 2.6172,-3.945 3.75,-6.561 0.9765,-2.619 1.4649,-5.196 1.4649,-7.737 0,-3.789 -0.9375,-7.089 -2.8125,-9.9 -1.875,-2.814 -4.3557,-4.221 -7.4415,-4.221 -2.1876,0 -4.0626,0.705 -5.625,2.112 -1.6797,1.443 -2.8905,3.261 -3.6327,5.448 0.7422,-0.312 1.4256,-0.468 2.0508,-0.468 1.6404,0 3.0468,0.585 4.2186,1.758 1.1718,1.248 1.7577,2.676 1.7577,4.275 0,1.68 -0.5664,3.186 -1.6992,4.512 -1.2108,1.212 -2.6367,1.818 -4.2771,1.818 -1.758,0 -3.3399,-0.606 -4.7463,-1.818 -1.3281,-1.326 -1.992,-2.832 -1.992,-4.512 0,-4.023 1.3671,-7.461 4.1016,-10.311 2.6952,-2.892 5.9763,-4.335 9.8436,-4.335"
     id="path88"
     inkscape:connector-curvature="0"
     style="stroke-width:3" />
  <path
     class="Clef"
     d="m 59.2311,114.6093 c 0,0 0.1173,0 0.3516,0 0.1563,-0.039 0.2931,-0.0585 0.4101,-0.0585 4.3752,0 7.9689,1.5429 10.781398,4.6287 2.8125,3.0471 4.2186,6.6018 4.2186,10.6641 0,5.0391 -2.0898,9.1407 -6.269398,12.3048 -1.0938,0.8592 -2.5197,1.5624 -4.2774,2.1093 0.1953,2.5392 0.2931,4.59 0.2931,6.1524 0,0.3126 -0.0393,1.4454 -0.1173,3.3984 -0.1563,3.6327 -1.4064,6.7773 -3.75,9.4335 -2.2656,2.6172 -5.0781,3.9258 -8.4375,3.9258 -3.1641,0 -5.8593,-1.1133 -8.0859,-3.3396 -2.2266,-2.2659 -3.3399,-5.0001 -3.3399,-8.2032 0,-1.6797 0.6444,-3.1056 1.9335,-4.2774 1.3281,-1.1718 2.8713,-1.7577 4.629,-1.7577 1.5624,0 2.871,0.6054 3.9258,1.8162 1.0938,1.1328 1.6407,2.5392 1.6407,4.2189 0,1.5234 -0.5469,2.832 -1.6407,3.9258 -1.0938,1.0938 -2.4024,1.6404 -3.9258,1.6404 -0.6249,0 -1.2306,-0.117 -1.8165,-0.3513 1.7187,2.5389 4.0041,3.8085 6.8556,3.8085 2.6952,0 4.9023,-1.0938 6.621,-3.2814 1.797,-2.2656 2.7735,-4.9023 2.9298,-7.9101 0.078,-1.875 0.117,-2.9493 0.117,-3.2226 0,-2.1876 -0.078,-3.9843 -0.2343,-5.3907 -1.953,0.3126 -3.6915,0.4689 -5.2149,0.4689 -5.4297,0 -10.0584,-2.1486 -13.8867,-6.4455 -3.75,-4.3359 -5.625,-9.492 -5.625,-15.4686 0,-1.2501 0.1173,-2.5197 0.3516,-3.8085 0.2343,-1.0548 0.5274,-2.2071 0.879,-3.4572 0.1953,-0.7032 0.7227,-1.836 1.5819,-3.3984 0.3126,-0.4686 0.6642,-1.0548 1.0548,-1.7577 0.3906,-0.7032 0.6639,-1.1721 0.8202,-1.4064 0.3906,-0.7812 1.1523,-1.836 2.2851,-3.1641 0.3126,-0.3516 0.6348,-0.7422 0.9669,-1.1718 0.3321,-0.4296 0.6153,-0.7812 0.8496,-1.0548 0.2343,-0.2733 0.4101,-0.4881 0.5274,-0.6444 0.1173,-0.1563 0.996,-1.1913 2.6367,-3.1056 0.3906,-0.3906 0.7716,-0.8103 1.1427,-1.2597 0.3711,-0.4491 0.6738,-0.8007 0.9081,-1.0545 0.2343,-0.2541 0.4101,-0.4395 0.5274,-0.5568 C 50.442,92.91 49.5633,89.199 49.2117,86.4258 c -0.2736,-2.2266 -0.4101,-5.2734 -0.4101,-9.1407 0,-3.3984 0.7812,-6.582 2.3436,-9.5508 1.5234,-3.0858 3.6525,-5.6055 6.3867,-7.5585 C 57.7272,60.0585 57.9225,60 58.1178,60 c 0.2736,0 0.4689,0.0585 0.5859,0.1758 2.1096,2.5389 3.9258,5.8398 5.4492,9.9024 1.5627,4.0623 2.3439,7.7538 2.3439,11.0742 0,3.75 -0.8985,7.2654 -2.6952,10.5468 -2.0313,3.4764 -4.6485,7.0704 -7.8516,10.7811 0.8202,2.5782 1.914,6.6213 3.2811,12.129 m 4.9806,27.246 c 2.0313,-0.7422 3.6132,-2.0115 4.746,-3.8085 1.2501,-1.7187 1.874998,-3.6522 1.874998,-5.8008 0,-2.7735 -0.937498,-5.2344 -2.812498,-7.3827 -1.914,-2.2266 -4.3554,-3.4767 -7.3242,-3.75 1.6797,8.2422 2.8515,15.1563 3.5157,20.742 M 41.5359,128.3202 c 0,3.8673 1.5624,7.2657 4.6875,10.1955 3.2031,2.8515 6.7968,4.2771 10.7811,4.2771 1.6407,0 3.2424,-0.117 4.8048,-0.3516 -0.6249,-5.9373 -1.8555,-13.0467 -3.6915,-21.3279 -2.2266,0.2343 -4.0038,1.0155 -5.3319,2.3436 -1.2891,1.3671 -1.9338,2.9103 -1.9338,4.629 0,2.9688 1.5822,5.3712 4.7463,7.2069 0.2733,0.2736 0.4101,0.5664 0.4101,0.879 0,0.3126 -0.1368,0.6054 -0.4101,0.879 -0.2343,0.2733 -0.5274,0.4101 -0.879,0.4101 -0.039,0 -0.2148,-0.039 -0.5274,-0.1173 -2.2266,-1.2108 -3.9453,-2.7735 -5.1561,-4.6875 -1.1328,-2.0313 -1.6992,-4.0821 -1.6992,-6.1524 0,-2.6952 0.8397,-5.1366 2.5194,-7.3242 1.758,-2.1873 4.0431,-3.5937 6.8556,-4.2186 -1.0938,-4.3749 -1.9923,-7.7931 -2.6955,-10.254 -0.6249,0.7032 -1.3767,1.5528 -2.2557,2.5488 -0.879,0.9963 -1.3965,1.5918 -1.5528,1.7871 -1.4061,1.836 -2.4804,3.2619 -3.2226,4.2774 -1.3281,1.836 -2.3046,3.4179 -2.9298,4.746 -0.6639,1.4844 -1.2498,3.1056 -1.7577,4.8633 -0.5079,1.6797 -0.7617,3.4767 -0.7617,5.3907 M 61.1061,68.7303 c -2.9295,1.4454 -5.2344,3.5157 -6.9141,6.2109 -1.7187,2.7735 -2.5779,5.7618 -2.5779,8.9649 0,2.8125 0.7029,6.6015 2.1093,11.3673 2.8125,-3.3984 4.9218,-6.543 6.3282,-9.4335 1.4841,-3.0471 2.2263,-6.2307 2.2263,-9.5508 0,-2.5002 -0.3906,-5.0196 -1.1718,-7.5588"
     id="path90"
     inkscape:connector-curvature="0"
     style="stroke-width:3" />
  <path
     class="TimeSig"
     d="m 104.4561,243.22141 c 1.1721,0 2.1681,-0.135 2.9883,-0.408 0.8205,-0.273 1.3476,-0.411 1.5822,-0.411 0.2733,0 0.4881,0.078 0.6444,0.234 0.1173,0.117 0.1953,0.255 0.2343,0.411 0,0.078 -0.039,0.195 -0.117,0.351 l -17.050802,19.806 H 102.7569 v -7.854 c 0,-0.507 0.1368,-0.936 0.4101,-1.287 0.4689,-0.393 0.8595,-0.627 1.1721,-0.705 0.5076,-0.234 1.1328,-0.78 1.875,-1.641 0.6249,-0.702 1.3671,-1.932 2.2266,-3.69 0.117,-0.234 0.2928,-0.351 0.5271,-0.351 0.4689,0 0.7422,0.273 0.8205,0.819 v 14.709 h 4.2774 c 0.5466,0 0.8592,0.291 0.9375,0.879 0,0.585 -0.3126,0.879 -0.9375,0.879 h -4.2774 v 0.468 c 0,1.563 0.3906,2.889 1.1718,3.984 0.8985,1.092 1.953,1.641 3.1641,1.641 0.4686,0 0.7032,0.234 0.7032,0.702 0,0.468 -0.2346,0.705 -0.7032,0.705 -0.8205,0 -2.1486,-0.12 -3.9843,-0.354 -1.6797,-0.273 -2.9883,-0.408 -3.9258,-0.408 -0.9768,0 -2.2854,0.135 -3.9258,0.408 -1.758,0.234 -3.066602,0.354 -3.925802,0.354 -0.4689,0 -0.7032,-0.237 -0.7032,-0.705 0,-0.468 0.2343,-0.702 0.7032,-0.702 1.2108,0 2.265602,-0.549 3.164102,-1.641 0.8202,-1.095 1.2303,-2.421 1.2303,-3.984 v -0.468 H 92.737498 c -0.6642,0 -1.1328,-0.159 -1.4064,-0.471 -0.3123,-0.234 -0.4686,-0.546 -0.4686,-0.936 0,-0.117 0.2928,-0.528 0.8787,-1.23 0.6642,-0.783 1.3674,-1.74 2.1096,-2.871 0.8592,-1.329 1.6797,-2.697 2.4609,-4.104 0.8592,-1.599 1.5429,-3.435 2.0508,-5.508 0.5859,-2.109 0.8787,-4.257 0.8787,-6.444 0,-0.624 0.2736,-0.936 0.820502,-0.936 0.117,0 0.3711,0.057 0.7617,0.174 0.1173,0.039 0.3612,0.099 0.7323,0.177 0.3711,0.078 0.6738,0.156 0.9084,0.234 0.7029,0.117 1.3671,0.174 1.992,0.174"
     id="path92"
     inkscape:connector-curvature="0"
     style="stroke-width:3" />
  <path
     class="TimeSig"
     d="m 104.4561,273.22141 c 1.1721,0 2.1681,-0.135 2.9883,-0.408 0.8205,-0.273 1.3476,-0.411 1.5822,-0.411 0.2733,0 0.4881,0.078 0.6444,0.234 0.1173,0.117 0.1953,0.255 0.2343,0.411 0,0.078 -0.039,0.195 -0.117,0.351 l -17.050802,19.806 H 102.7569 v -7.854 c 0,-0.507 0.1368,-0.936 0.4101,-1.287 0.4689,-0.39 0.8595,-0.627 1.1721,-0.705 0.5076,-0.234 1.1328,-0.78 1.875,-1.641 0.6249,-0.702 1.3671,-1.932 2.2266,-3.69 0.117,-0.234 0.2928,-0.351 0.5271,-0.351 0.4689,0 0.7422,0.273 0.8205,0.819 v 14.709 h 4.2774 c 0.5466,0 0.8592,0.291 0.9375,0.879 0,0.585 -0.3126,0.879 -0.9375,0.879 h -4.2774 v 0.468 c 0,1.563 0.3906,2.889 1.1718,3.984 0.8985,1.092 1.953,1.641 3.1641,1.641 0.4686,0 0.7032,0.234 0.7032,0.702 0,0.468 -0.2346,0.705 -0.7032,0.705 -0.8205,0 -2.1486,-0.12 -3.9843,-0.354 -1.6797,-0.273 -2.9883,-0.408 -3.9258,-0.408 -0.9768,0 -2.2854,0.135 -3.9258,0.408 -1.758,0.234 -3.066602,0.354 -3.925802,0.354 -0.4689,0 -0.7032,-0.237 -0.7032,-0.705 0,-0.468 0.2343,-0.702 0.7032,-0.702 1.2108,0 2.265602,-0.549 3.164102,-1.641 0.8202,-1.095 1.2303,-2.421 1.2303,-3.984 v -0.468 H 92.737498 c -0.6642,0 -1.1328,-0.159 -1.4064,-0.471 -0.3123,-0.234 -0.4686,-0.546 -0.4686,-0.936 0,-0.117 0.2928,-0.528 0.8787,-1.23 0.6642,-0.783 1.3674,-1.74 2.1096,-2.871 0.8592,-1.329 1.6797,-2.697 2.4609,-4.104 0.8592,-1.599 1.5429,-3.435 2.0508,-5.508 0.5859,-2.109 0.8787,-4.257 0.8787,-6.444 0,-0.624 0.2736,-0.936 0.820502,-0.936 0.117,0 0.3711,0.057 0.7617,0.174 0.1173,0.039 0.3612,0.099 0.7323,0.177 0.3711,0.078 0.6738,0.156 0.9084,0.234 0.7029,0.117 1.3671,0.174 1.992,0.174"
     id="path94"
     inkscape:connector-curvature="0"
     style="stroke-width:3" />
  <path
     class="TimeSig"
     d="m 104.4561,85.7226 c 1.1721,0 2.1681,-0.1368 2.9883,-0.4101 0.8205,-0.2736 1.3476,-0.4101 1.5822,-0.4101 0.2733,0 0.4881,0.078 0.6444,0.2343 0.1173,0.117 0.1953,0.2538 0.2343,0.4101 0,0.078 -0.039,0.1953 -0.117,0.3516 L 92.737498,105.7029 H 102.7569 v -7.8513 c 0,-0.5079 0.1368,-0.9375 0.4101,-1.2891 0.4689,-0.3906 0.8595,-0.6252 1.1721,-0.7032 0.5076,-0.2343 1.1328,-0.7812 1.875,-1.6407 0.6249,-0.7032 1.3671,-1.9335 2.2266,-3.6912 0.117,-0.2346 0.2928,-0.3516 0.5271,-0.3516 0.4689,0 0.7422,0.2733 0.8205,0.8202 v 14.7069 h 4.2774 c 0.5466,0 0.8592,0.2931 0.9375,0.879 0,0.5859 -0.3126,0.879 -0.9375,0.879 h -4.2774 v 0.4686 c 0,1.5627 0.3906,2.8908 1.1718,3.9846 0.8985,1.0935 1.953,1.6404 3.1641,1.6404 0.4686,0 0.7032,0.2346 0.7032,0.7032 0,0.4689 -0.2346,0.7032 -0.7032,0.7032 -0.8205,0 -2.1486,-0.1173 -3.9843,-0.3516 -1.6797,-0.2736 -2.9883,-0.4101 -3.9258,-0.4101 -0.9768,0 -2.2854,0.1365 -3.9258,0.4101 -1.758,0.2343 -3.066602,0.3516 -3.925802,0.3516 -0.4689,0 -0.7032,-0.2343 -0.7032,-0.7032 0,-0.4686 0.2343,-0.7032 0.7032,-0.7032 1.2108,0 2.265602,-0.5469 3.164102,-1.6404 0.8202,-1.0938 1.2303,-2.4219 1.2303,-3.9846 v -0.4686 H 92.737498 c -0.6642,0 -1.1328,-0.1563 -1.4064,-0.4689 -0.3123,-0.2343 -0.4686,-0.5469 -0.4686,-0.9375 0,-0.117 0.2928,-0.5271 0.8787,-1.2303 0.6642,-0.7812 1.3674,-1.7385 2.1096,-2.8713 0.8592,-1.3281 1.6797,-2.6952 2.4609,-4.1013 0.8592,-1.6017 1.5429,-3.4377 2.0508,-5.508 0.5859,-2.1093 0.8787,-4.2579 0.8787,-6.4452 0,-0.6252 0.2736,-0.9375 0.820502,-0.9375 0.117,0 0.3711,0.0585 0.7617,0.1758 0.1173,0.039 0.3612,0.0975 0.7323,0.1758 0.3711,0.078 0.6738,0.1563 0.9084,0.2343 0.7029,0.1173 1.3671,0.1758 1.992,0.1758"
     id="path96"
     inkscape:connector-curvature="0"
     style="stroke-width:3" />
  <path
     class="TimeSig"
     d="m 104.4561,115.7226 c 1.1721,0 2.1681,-0.1368 2.9883,-0.4101 0.8205,-0.2736 1.3476,-0.4101 1.5822,-0.4101 0.2733,0 0.4881,0.078 0.6444,0.2343 0.1173,0.117 0.1953,0.2538 0.2343,0.4101 0,0.078 -0.039,0.1953 -0.117,0.3516 L 92.737498,135.7032 H 102.7569 v -7.8516 c 0,-0.5079 0.1368,-0.9375 0.4101,-1.2891 0.4689,-0.3906 0.8595,-0.6252 1.1721,-0.7032 0.5076,-0.2343 1.1328,-0.7812 1.875,-1.6407 0.6249,-0.7029 1.3671,-1.9335 2.2266,-3.6912 0.117,-0.2346 0.2928,-0.3516 0.5271,-0.3516 0.4689,0 0.7422,0.2733 0.8205,0.8202 v 14.7072 h 4.2774 c 0.5466,0 0.8592,0.2928 0.9375,0.8787 0,0.5859 -0.3126,0.879 -0.9375,0.879 h -4.2774 v 0.4686 c 0,1.5627 0.3906,2.8908 1.1718,3.9846 0.8985,1.0935 1.953,1.6404 3.1641,1.6404 0.4686,0 0.7032,0.2346 0.7032,0.7032 0,0.4689 -0.2346,0.7032 -0.7032,0.7032 -0.8205,0 -2.1486,-0.1173 -3.9843,-0.3516 -1.6797,-0.2733 -2.9883,-0.4101 -3.9258,-0.4101 -0.9768,0 -2.2854,0.1368 -3.9258,0.4101 -1.758,0.2343 -3.066602,0.3516 -3.925802,0.3516 -0.4689,0 -0.7032,-0.2343 -0.7032,-0.7032 0,-0.4686 0.2343,-0.7032 0.7032,-0.7032 1.2108,0 2.265602,-0.5469 3.164102,-1.6404 0.8202,-1.0938 1.2303,-2.4219 1.2303,-3.9846 v -0.4686 H 92.737498 c -0.6642,0 -1.1328,-0.1563 -1.4064,-0.4689 -0.3123,-0.2343 -0.4686,-0.5469 -0.4686,-0.9375 0,-0.117 0.2928,-0.5271 0.8787,-1.2303 0.6642,-0.7812 1.3674,-1.7382 2.1096,-2.871 0.8592,-1.3284 1.6797,-2.6955 2.4609,-4.1016 0.8592,-1.6017 1.5429,-3.4377 2.0508,-5.508 0.5859,-2.1093 0.8787,-4.2576 0.8787,-6.4452 0,-0.6249 0.2736,-0.9375 0.820502,-0.9375 0.117,0 0.3711,0.0585 0.7617,0.1758 0.1173,0.039 0.3612,0.0975 0.7323,0.1758 0.3711,0.078 0.6738,0.1563 0.9084,0.2343 0.7029,0.1173 1.3671,0.1758 1.992,0.1758"
     id="path98"
     inkscape:connector-curvature="0"
     style="stroke-width:3" />
  <path
     class="Bracket"
     d="m 18.9255,161.08546 c 0,-17.74597 -12.0684,-34.99551 -12.0684,-51.99652 0,-8.56263 3.2913,-16.87735 13.44,-24.323134 0.1371,-0.09297 0.2055,-0.248222 0.2055,-0.341193 0,-0.279212 -0.7542,-0.527436 -1.3026,-0.527436 -0.2745,0 -0.7545,0.03099 -1.0974,0.248224 C 4.9371,93.700929 0.5484,104.74549 0.5484,115.91402 c 0,17.9942 12.8916,35.36769 12.8916,52.61723 0,8.56264 -3.2916,16.62883 -13.44,24.07461 v 0.24823 0.24821 c 10.1484,7.4461 13.44,15.5126 13.44,24.07432 0,17.25105 -12.8916,34.62363 -12.8916,52.61602 0,11.17156 4.3887,22.21552 17.5542,31.77074 0.3429,0.21572 0.8229,0.2461 1.0974,0.2461 0.5484,0 1.3026,-0.2461 1.3026,-0.52561 0,-0.0942 -0.0684,-0.24914 -0.2055,-0.34028 -10.1487,-7.4467 -13.44,-15.76233 -13.44,-24.32406 0,-17.00192 12.0684,-34.24993 12.0684,-51.99622 0,-11.29309 -4.3884,-22.09095 -17.28,-31.76922 12.8916,-9.6795 17.28,-20.47584 17.28,-31.76863"
     id="path104"
     inkscape:connector-curvature="0"
     style="fill-rule:evenodd;stroke-width:3.01905322" />
</svg>
