<?xml version="1.0" encoding="UTF-8" standalone="no"?>
<svg width="2976.38px" height="4209.44px" viewBox="0 0 2976.38 4209.44"
 xmlns="http://www.w3.org/2000/svg" xmlns:xlink="http://www.w3.org/1999/xlink" version="1.2" baseProfile="tiny">
<title>Untitled</title>
<desc>Generated by MuseScore 3.0.2</desc>
<polyline class="StaffLines" fill="none" stroke="#000000" stroke-width="2.00" stroke-linejoin="bevel" points="141.732,566.733 2834.64,566.733"/>
<polyline class="StaffLines" fill="none" stroke="#000000" stroke-width="2.00" stroke-linejoin="bevel" points="141.732,591.733 2834.64,591.733"/>
<polyline class="StaffLines" fill="none" stroke="#000000" stroke-width="2.00" stroke-linejoin="bevel" points="141.732,616.733 2834.64,616.733"/>
<polyline class="StaffLines" fill="none" stroke="#000000" stroke-width="2.00" stroke-linejoin="bevel" points="141.732,641.733 2834.64,641.733"/>
<polyline class="StaffLines" fill="none" stroke="#000000" stroke-width="2.00" stroke-linejoin="bevel" points="141.732,666.733 2834.64,666.733"/>
<path class="Text" d="M2591.73,359.233 C2591.73,353.024 2593.65,347.983 2597.5,344.108 C2601.34,340.233 2606.12,338.295 2611.84,338.295 C2614.39,338.295 2616.79,338.608 2619.04,339.233 C2621.28,339.858 2622.58,340.17 2622.94,340.17 C2624.26,340.17 2625.1,339.545 2625.45,338.295 L2626.72,338.295 L2627.26,351.733 L2625.87,351.733 C2623.68,344.295 2619.38,340.576 2612.98,340.576 C2608.62,340.576 2605.15,342.196 2602.57,345.436 C2599.99,348.675 2598.7,353.014 2598.7,358.451 C2598.7,361.93 2599.15,364.941 2600.05,367.483 C2600.95,370.024 2602.16,371.943 2603.68,373.24 C2605.19,374.537 2606.76,375.477 2608.38,376.061 C2610,376.644 2611.73,376.936 2613.58,376.936 C2618.29,376.936 2622.75,374.915 2626.95,370.873 L2628.04,371.951 C2626.2,374.389 2623.86,376.269 2621.02,377.592 C2618.18,378.915 2615.06,379.576 2611.65,379.576 C2605.74,379.576 2600.94,377.717 2597.26,373.998 C2593.57,370.279 2591.73,365.358 2591.73,359.233 M2644.4,351.139 C2648.24,351.139 2651.39,352.417 2653.87,354.975 C2656.35,357.532 2657.59,360.774 2657.59,364.701 C2657.59,368.858 2656.31,372.334 2653.76,375.131 C2651.2,377.928 2648.04,379.326 2644.28,379.326 C2640.52,379.326 2637.39,377.977 2634.89,375.279 C2632.39,372.581 2631.14,369.212 2631.14,365.17 C2631.14,361.055 2632.37,357.688 2634.83,355.068 C2637.28,352.449 2640.48,351.139 2644.4,351.139 M2636.54,362.264 C2636.54,366.503 2637.32,370.108 2638.88,373.076 C2640.44,376.045 2642.48,377.529 2645,377.529 C2647.24,377.529 2649,376.579 2650.28,374.678 C2651.56,372.777 2652.2,370.144 2652.2,366.779 C2652.2,362.696 2651.4,359.368 2649.8,356.795 C2648.2,354.222 2646.14,352.936 2643.62,352.936 C2641.5,352.936 2639.79,353.787 2638.49,355.49 C2637.19,357.193 2636.54,359.451 2636.54,362.264 M2659.42,354.967 L2659.42,353.951 C2662.29,353.118 2665.09,352.18 2667.81,351.139 L2668.23,351.264 L2668.23,355.873 C2670.71,353.946 2672.55,352.675 2673.76,352.061 C2674.96,351.446 2676.22,351.139 2677.54,351.139 C2680.7,351.139 2682.82,352.852 2683.9,356.279 C2687.02,352.852 2690.27,351.139 2693.67,351.139 C2698.32,351.139 2700.64,354.727 2700.64,361.904 L2700.64,374.186 C2700.64,376.415 2701.5,377.592 2703.22,377.717 L2704.78,377.826 L2704.78,378.733 L2691.64,378.733 L2691.64,377.826 C2693.4,377.628 2694.5,377.292 2694.94,376.818 C2695.37,376.344 2695.59,375.248 2695.59,373.529 L2695.59,360.936 C2695.59,358.467 2695.27,356.756 2694.63,355.803 C2693.99,354.85 2692.81,354.373 2691.09,354.373 C2688.46,354.373 2686.28,355.587 2684.56,358.014 L2684.56,373.061 C2684.56,374.925 2684.85,376.178 2685.43,376.818 C2686.01,377.459 2687.15,377.795 2688.87,377.826 L2688.87,378.733 L2675.44,378.733 L2675.44,377.826 C2677.15,377.712 2678.26,377.397 2678.76,376.881 C2679.26,376.365 2679.51,375.269 2679.51,373.592 L2679.51,360.639 C2679.51,356.462 2678.2,354.373 2675.56,354.373 C2674.44,354.373 2673.18,354.652 2671.8,355.209 C2670.42,355.766 2669.32,356.665 2668.48,357.904 L2668.48,374.733 C2668.48,375.889 2668.76,376.675 2669.32,377.092 C2669.88,377.509 2670.96,377.753 2672.56,377.826 L2672.56,378.733 L2659.23,378.733 L2659.23,377.826 C2660.92,377.795 2662.04,377.501 2662.6,376.943 C2663.16,376.386 2663.44,375.29 2663.44,373.654 L2663.44,358.561 C2663.44,357.123 2663.29,356.126 2662.99,355.568 C2662.69,355.011 2662.14,354.733 2661.34,354.733 C2660.74,354.733 2660.1,354.811 2659.42,354.967 M2706.48,355.154 L2706.48,354.201 C2709,353.441 2711.88,352.42 2715.12,351.139 L2715.48,351.248 L2715.48,355.873 C2718.03,352.717 2720.91,351.139 2724.12,351.139 C2727.04,351.139 2729.44,352.342 2731.32,354.748 C2733.2,357.154 2734.14,360.227 2734.14,363.967 C2734.14,368.311 2732.93,371.956 2730.51,374.904 C2728.08,377.852 2725.1,379.326 2721.54,379.326 C2720.26,379.326 2719.19,379.154 2718.33,378.811 C2717.47,378.467 2716.52,377.821 2715.48,376.873 L2715.48,386.217 C2715.48,388.081 2715.8,389.279 2716.44,389.811 C2717.08,390.342 2718.52,390.628 2720.76,390.67 L2720.76,391.748 L2706.23,391.748 L2706.23,390.733 C2707.99,390.576 2709.13,390.238 2709.65,389.717 C2710.18,389.196 2710.44,388.154 2710.44,386.592 L2710.44,358.514 C2710.44,357.118 2710.28,356.199 2709.96,355.756 C2709.64,355.313 2708.98,355.092 2707.98,355.092 C2707.34,355.092 2706.84,355.113 2706.48,355.154 M2715.48,358.717 L2715.48,373.545 C2715.48,374.43 2716.17,375.316 2717.55,376.201 C2718.93,377.087 2720.32,377.529 2721.72,377.529 C2723.87,377.529 2725.62,376.496 2726.97,374.428 C2728.31,372.36 2728.98,369.654 2728.98,366.311 C2728.98,362.811 2728.31,360.006 2726.97,357.897 C2725.62,355.787 2723.83,354.733 2721.59,354.733 C2720.2,354.733 2718.83,355.175 2717.49,356.061 C2716.15,356.946 2715.48,357.831 2715.48,358.717 M2750.4,351.139 C2754.24,351.139 2757.39,352.417 2759.87,354.975 C2762.35,357.532 2763.59,360.774 2763.59,364.701 C2763.59,368.858 2762.31,372.334 2759.76,375.131 C2757.2,377.928 2754.04,379.326 2750.28,379.326 C2746.52,379.326 2743.39,377.977 2740.89,375.279 C2738.39,372.581 2737.14,369.212 2737.14,365.17 C2737.14,361.055 2738.37,357.688 2740.83,355.068 C2743.28,352.449 2746.48,351.139 2750.4,351.139 M2742.54,362.264 C2742.54,366.503 2743.32,370.108 2744.88,373.076 C2746.44,376.045 2748.48,377.529 2751,377.529 C2753.24,377.529 2755,376.579 2756.28,374.678 C2757.56,372.777 2758.2,370.144 2758.2,366.779 C2758.2,362.696 2757.4,359.368 2755.8,356.795 C2754.2,354.222 2752.14,352.936 2749.62,352.936 C2747.5,352.936 2745.79,353.787 2744.49,355.49 C2743.19,357.193 2742.54,359.451 2742.54,362.264 M2780.72,352.326 C2780.76,352.326 2781.08,352.128 2781.69,351.733 L2782.34,351.733 L2782.58,359.889 L2781.69,359.889 C2781,357.212 2780.15,355.313 2779.15,354.193 C2778.15,353.074 2776.79,352.514 2775.08,352.514 C2773.72,352.514 2772.61,352.894 2771.75,353.654 C2770.88,354.415 2770.45,355.394 2770.45,356.592 C2770.45,358.311 2771.32,359.67 2773.04,360.67 L2779.51,364.514 C2781.32,365.597 2782.61,366.688 2783.39,367.787 C2784.17,368.886 2784.56,370.175 2784.56,371.654 C2784.56,373.738 2783.73,375.537 2782.07,377.053 C2780.41,378.568 2778.41,379.326 2776.09,379.326 C2775.09,379.326 2773.75,379.147 2772.08,378.787 C2770.4,378.428 2769.36,378.248 2768.95,378.248 C2768.36,378.248 2767.9,378.488 2767.58,378.967 L2766.79,378.967 L2766.79,369.608 L2767.76,369.608 C2768.4,372.41 2769.16,374.389 2770.04,375.545 C2771.32,377.191 2773.09,378.014 2775.37,378.014 C2776.89,378.014 2778.1,377.623 2779.01,376.842 C2779.91,376.061 2780.36,375.009 2780.36,373.686 C2780.36,371.894 2779.32,370.394 2777.23,369.186 L2773.76,367.217 C2771.2,365.779 2769.39,364.399 2768.33,363.076 C2767.26,361.753 2766.73,360.253 2766.73,358.576 C2766.73,356.41 2767.5,354.639 2769.04,353.264 C2770.59,351.889 2772.54,351.201 2774.9,351.201 C2776.22,351.201 2777.45,351.389 2778.62,351.764 C2779.78,352.139 2780.48,352.326 2780.72,352.326 M2792.45,362.108 C2792.53,364.628 2792.88,366.8 2793.47,368.623 C2794.07,370.446 2794.85,371.805 2795.82,372.701 C2796.78,373.597 2797.75,374.235 2798.73,374.615 C2799.71,374.996 2800.74,375.186 2801.81,375.186 C2803.74,375.186 2805.41,374.706 2806.83,373.748 C2808.24,372.79 2809.68,371.17 2811.12,368.889 L2812.08,369.311 C2810.84,372.55 2809.12,375.029 2806.92,376.748 C2804.72,378.467 2802.2,379.326 2799.36,379.326 C2795.92,379.326 2793.19,378.118 2791.17,375.701 C2789.15,373.285 2788.14,370.014 2788.14,365.889 C2788.14,361.451 2789.31,357.884 2791.65,355.186 C2793.98,352.488 2797,351.139 2800.69,351.139 C2803.72,351.139 2806.07,352.048 2807.76,353.865 C2809.44,355.683 2810.5,358.43 2810.94,362.108 L2792.45,362.108 M2792.58,360.311 L2804.81,360.311 C2804.41,357.717 2803.8,355.92 2802.96,354.92 C2802.12,353.92 2800.78,353.42 2798.94,353.42 C2795.34,353.42 2793.22,355.717 2792.58,360.311 M2831.7,357.014 C2831.1,357.014 2830.35,356.665 2829.47,355.967 C2828.59,355.269 2828.01,354.92 2827.73,354.92 C2826.94,354.92 2826.04,355.498 2825.04,356.654 C2824.04,357.811 2823.54,358.868 2823.54,359.826 L2823.54,373.326 C2823.54,375.055 2823.88,376.219 2824.56,376.818 C2825.24,377.417 2826.6,377.753 2828.64,377.826 L2828.64,378.733 L2814.23,378.733 L2814.23,377.826 C2816.16,377.472 2817.35,377.074 2817.81,376.631 C2818.27,376.188 2818.5,375.206 2818.5,373.686 L2818.5,358.686 C2818.5,357.373 2818.35,356.446 2818.04,355.904 C2817.74,355.363 2817.21,355.092 2816.45,355.092 C2815.82,355.092 2815.12,355.17 2814.36,355.326 L2814.36,354.373 C2817.56,353.331 2820.51,352.253 2823.23,351.139 L2823.54,351.248 L2823.54,356.779 C2825.02,354.654 2826.28,353.183 2827.32,352.365 C2828.35,351.548 2829.49,351.139 2830.73,351.139 C2831.77,351.139 2832.59,351.417 2833.17,351.975 C2833.75,352.532 2834.04,353.311 2834.04,354.311 C2834.04,355.154 2833.83,355.816 2833.41,356.295 C2832.99,356.774 2832.42,357.014 2831.7,357.014"/>
<path class="Text" d="M1406.92,149.576 L1400.45,149.576 C1393.72,149.576 1389.22,150.482 1386.94,152.295 C1384.67,154.107 1382.81,158.243 1381.37,164.701 L1378.48,164.701 L1379.2,144.295 L1446.89,144.295 L1447.61,164.701 L1444.72,164.701 C1443.36,158.159 1441.54,154.003 1439.26,152.232 C1436.98,150.462 1432.44,149.576 1425.64,149.576 L1419.17,149.576 L1419.17,210.685 C1419.17,215.071 1419.85,217.902 1421.21,219.178 C1422.57,220.454 1425.73,221.212 1430.69,221.451 L1430.69,223.732 L1395.64,223.732 L1395.64,221.451 C1400.61,221.128 1403.73,220.31 1405.01,218.998 C1406.28,217.685 1406.92,214.477 1406.92,209.373 L1406.92,149.576 M1457.12,176.576 C1455.36,176.576 1453.69,176.696 1452.09,176.935 L1452.09,175.139 C1457.69,173.534 1463.88,171.331 1470.69,168.529 L1471.17,168.889 L1471.17,211.498 C1471.17,215.81 1471.67,218.547 1472.67,219.709 C1473.67,220.87 1476.13,221.613 1480.04,221.935 L1480.04,223.732 L1451.61,223.732 L1451.61,221.935 C1455.76,221.696 1458.38,220.975 1459.47,219.771 C1460.55,218.568 1461.09,215.81 1461.09,211.498 L1461.09,183.654 C1461.09,181.019 1460.79,179.18 1460.19,178.139 C1459.58,177.097 1458.56,176.576 1457.12,176.576 M1465.04,141.779 C1466.81,141.779 1468.28,142.378 1469.48,143.576 C1470.68,144.774 1471.28,146.212 1471.28,147.889 C1471.28,149.649 1470.68,151.11 1469.48,152.271 C1468.28,153.433 1466.81,154.014 1465.04,154.014 C1463.37,154.014 1461.95,153.415 1460.79,152.217 C1459.63,151.019 1459.04,149.579 1459.04,147.896 C1459.04,146.214 1459.64,144.774 1460.84,143.576 C1462.04,142.378 1463.44,141.779 1465.04,141.779 M1513.76,169.732 L1513.76,173.342 L1501.64,173.342 L1501.64,207.654 C1501.64,211.415 1502.12,214.154 1503.08,215.873 C1504.05,217.592 1505.65,218.451 1507.89,218.451 C1510.37,218.451 1512.77,217.05 1515.09,214.248 L1516.64,215.576 C1512.81,221.816 1508.01,224.935 1502.25,224.935 C1495.12,224.935 1491.56,219.831 1491.56,209.623 L1491.56,173.342 L1485.2,173.342 C1484.89,173.113 1484.73,172.847 1484.73,172.545 C1484.73,172.17 1484.85,171.87 1485.09,171.646 C1485.33,171.422 1485.79,171.105 1486.47,170.693 C1487.14,170.282 1487.96,169.691 1488.93,168.92 C1489.89,168.149 1491.21,166.751 1492.89,164.725 C1494.57,162.699 1496.4,160.264 1498.4,157.42 C1499.69,155.555 1500.49,154.42 1500.81,154.014 C1501.36,154.014 1501.64,154.54 1501.64,155.592 L1501.64,169.732 L1513.76,169.732 M1517.89,148.982 L1517.89,147.06 C1525.81,145.133 1532.16,143.373 1536.97,141.779 L1537.45,142.014 L1537.45,213.654 C1537.45,216.935 1537.99,219.076 1539.07,220.076 C1540.15,221.076 1542.61,221.696 1546.45,221.935 L1546.45,223.732 L1518.12,223.732 L1518.12,221.935 C1521.88,221.613 1524.36,220.891 1525.56,219.771 C1526.76,218.652 1527.36,216.493 1527.36,213.295 L1527.36,156.06 C1527.36,153.258 1527,151.337 1526.28,150.295 C1525.56,149.253 1524.24,148.732 1522.33,148.732 C1520.72,148.732 1519.24,148.816 1517.89,148.982 M1559.33,190.498 C1559.48,195.54 1560.16,199.878 1561.37,203.514 C1562.57,207.149 1564.13,209.868 1566.04,211.67 C1567.96,213.472 1569.9,214.753 1571.87,215.514 C1573.83,216.274 1575.89,216.654 1578.04,216.654 C1581.89,216.654 1585.23,215.693 1588.07,213.771 C1590.91,211.85 1593.76,208.613 1596.64,204.06 L1598.56,204.889 C1596.08,211.368 1592.64,216.329 1588.24,219.771 C1583.84,223.214 1578.8,224.935 1573.12,224.935 C1566.25,224.935 1560.79,222.516 1556.75,217.678 C1552.71,212.839 1550.69,206.3 1550.69,198.06 C1550.69,189.175 1553.03,182.032 1557.71,176.631 C1562.39,171.23 1568.41,168.529 1575.76,168.529 C1581.85,168.529 1586.57,170.35 1589.93,173.99 C1593.29,177.631 1595.4,183.133 1596.28,190.498 L1559.33,190.498 M1559.56,186.889 L1584.04,186.889 C1583.24,181.691 1582,178.092 1580.33,176.092 C1578.65,174.092 1575.97,173.092 1572.28,173.092 C1565.08,173.092 1560.84,177.691 1559.56,186.889"/>
<polyline class="BarLine" fill="none" stroke="#000000" stroke-width="4.00" stroke-linejoin="bevel" points="2810.14,565.733 2810.14,667.733"/>
<polyline class="BarLine" fill="none" stroke="#000000" stroke-width="12.50" stroke-linejoin="bevel" points="2828.39,565.733 2828.39,667.733"/>
<polyline class="Stem" fill="none" stroke="#000000" stroke-width="3.25" stroke-linecap="round" stroke-linejoin="bevel" points="341.529,608.928 341.529,685.483"/>
<path class="Note" d="M361.873,590.467 C364.998,590.467 367.639,591.28 369.795,592.905 C371.805,594.665 372.811,596.878 372.811,599.545 C372.811,604.035 370.503,608.233 365.889,612.139 C361.201,616.045 356.186,617.998 350.842,617.998 C347.717,617.998 345.081,617.186 342.936,615.561 C340.915,613.8 339.904,611.587 339.904,608.92 C339.904,604.431 342.248,600.233 346.936,596.326 C351.498,592.42 356.477,590.467 361.873,590.467"/>
<path class="Clef" d="M198.451,616.139 C198.451,616.139 198.649,616.139 199.045,616.139 C199.305,616.076 199.529,616.045 199.717,616.045 C207.008,616.045 212.998,618.618 217.685,623.764 C222.373,628.837 224.717,634.759 224.717,641.53 C224.717,649.936 221.238,656.774 214.279,662.045 C212.456,663.483 210.076,664.655 207.139,665.561 C207.472,669.79 207.639,673.207 207.639,675.811 C207.639,676.332 207.571,678.222 207.435,681.483 C207.175,687.535 205.092,692.774 201.185,697.201 C197.415,701.566 192.727,703.748 187.123,703.748 C181.852,703.748 177.363,701.894 173.654,698.186 C169.935,694.405 168.076,689.847 168.076,684.514 C168.076,681.712 169.154,679.332 171.31,677.373 C173.519,675.425 176.087,674.451 179.014,674.451 C181.618,674.451 183.8,675.462 185.56,677.483 C187.383,679.368 188.295,681.712 188.295,684.514 C188.295,687.045 187.383,689.222 185.56,691.045 C183.738,692.868 181.555,693.78 179.014,693.78 C177.972,693.78 176.967,693.587 175.998,693.201 C178.863,697.431 182.67,699.545 187.42,699.545 C191.909,699.545 195.587,697.722 198.451,694.076 C201.451,690.306 203.081,685.91 203.342,680.889 C203.467,677.764 203.529,675.977 203.529,675.53 C203.529,671.884 203.399,668.889 203.139,666.545 C199.889,667.066 196.993,667.326 194.451,667.326 C185.399,667.326 177.685,663.743 171.31,656.576 C165.06,649.347 161.935,640.754 161.935,630.795 C161.935,628.712 162.128,626.597 162.514,624.451 C162.909,622.691 163.399,620.769 163.982,618.686 C164.305,617.509 165.185,615.618 166.623,613.014 C167.144,612.233 167.73,611.256 168.381,610.084 C169.032,608.912 169.488,608.134 169.748,607.748 C170.394,606.446 171.659,604.686 173.545,602.467 C174.066,601.884 174.605,601.235 175.162,600.522 C175.719,599.808 176.193,599.222 176.584,598.764 C176.975,598.306 177.266,597.946 177.459,597.686 C177.652,597.425 179.118,595.701 181.857,592.514 C182.503,591.858 183.136,591.157 183.756,590.412 C184.376,589.668 184.881,589.082 185.271,588.655 C185.662,588.227 185.956,587.92 186.154,587.733 C183.81,579.983 182.342,573.795 181.748,569.17 C181.3,565.462 181.076,560.384 181.076,553.936 C181.076,548.269 182.378,542.962 184.982,538.014 C187.514,532.879 191.06,528.681 195.623,525.42 C195.883,525.222 196.206,525.123 196.592,525.123 C197.05,525.123 197.378,525.222 197.576,525.42 C201.087,529.649 204.113,535.149 206.654,541.92 C209.258,548.691 210.56,554.847 210.56,560.389 C210.56,566.639 209.066,572.498 206.076,577.967 C202.691,583.759 198.326,589.748 192.982,595.936 C194.347,600.227 196.17,606.962 198.451,616.139 M206.748,661.561 C210.133,660.321 212.774,658.207 214.67,655.217 C216.753,652.352 217.795,649.129 217.795,645.545 C217.795,640.92 216.232,636.816 213.107,633.233 C209.909,629.524 205.837,627.441 200.889,626.983 C203.691,640.722 205.644,652.248 206.748,661.561 M168.967,638.998 C168.967,645.446 171.571,651.113 176.779,655.998 C182.113,660.748 188.102,663.123 194.748,663.123 C197.477,663.123 200.144,662.925 202.748,662.53 C201.706,652.634 199.654,640.785 196.592,626.983 C192.883,627.379 189.925,628.681 187.717,630.889 C185.56,633.17 184.482,635.743 184.482,638.608 C184.482,643.556 187.123,647.561 192.404,650.623 C192.852,651.082 193.076,651.571 193.076,652.092 C193.076,652.613 192.852,653.097 192.404,653.545 C192.008,654.004 191.519,654.233 190.935,654.233 C190.873,654.233 190.581,654.17 190.06,654.045 C186.342,652.024 183.477,649.42 181.467,646.233 C179.571,642.837 178.623,639.415 178.623,635.967 C178.623,631.477 180.024,627.41 182.826,623.764 C185.753,620.118 189.56,617.774 194.248,616.733 C192.425,609.441 190.93,603.743 189.764,599.639 C188.722,600.816 187.469,602.233 186.006,603.889 C184.542,605.545 183.68,606.54 183.42,606.873 C181.076,609.925 179.284,612.3 178.045,613.998 C175.826,617.061 174.196,619.696 173.154,621.905 C172.05,624.384 171.076,627.087 170.232,630.014 C169.389,632.816 168.967,635.811 168.967,638.998 M201.576,539.686 C196.691,542.092 192.852,545.54 190.06,550.03 C187.196,554.655 185.764,559.634 185.764,564.967 C185.764,569.655 186.935,575.972 189.279,583.92 C193.967,578.254 197.482,573.014 199.826,568.201 C202.295,563.118 203.529,557.811 203.529,552.28 C203.529,548.113 202.878,543.915 201.576,539.686"/>
<path class="TimeSig" d="M272.467,567.912 C274.415,567.912 276.074,567.686 277.443,567.233 C278.813,566.78 279.691,566.553 280.076,566.553 C280.535,566.553 280.894,566.683 281.154,566.944 C281.352,567.131 281.482,567.355 281.545,567.615 C281.545,567.751 281.477,567.949 281.342,568.209 L252.936,601.225 L269.623,601.225 L269.623,588.131 C269.623,587.287 269.852,586.569 270.311,585.975 C271.092,585.329 271.743,584.938 272.264,584.803 C273.107,584.418 274.149,583.506 275.389,582.069 C276.43,580.902 277.67,578.855 279.107,575.928 C279.295,575.532 279.587,575.334 279.982,575.334 C280.764,575.334 281.217,575.793 281.342,576.709 L281.342,601.225 L288.482,601.225 C289.389,601.225 289.91,601.709 290.045,602.678 C290.045,603.657 289.524,604.147 288.482,604.147 L281.342,604.147 L281.342,604.928 C281.342,607.532 281.993,609.746 283.295,611.569 C284.795,613.391 286.555,614.303 288.576,614.303 C289.357,614.303 289.748,614.694 289.748,615.475 C289.748,616.256 289.357,616.647 288.576,616.647 C287.212,616.647 284.998,616.454 281.936,616.069 C279.133,615.61 276.951,615.381 275.389,615.381 C273.764,615.381 271.581,615.61 268.842,616.069 C265.915,616.454 263.738,616.647 262.311,616.647 C261.529,616.647 261.139,616.256 261.139,615.475 C261.139,614.694 261.529,614.303 262.311,614.303 C264.321,614.303 266.076,613.391 267.576,611.569 C268.941,609.683 269.623,607.47 269.623,604.928 L269.623,604.147 L252.936,604.147 C251.821,604.147 251.04,603.886 250.592,603.365 C250.061,602.98 249.795,602.459 249.795,601.803 C249.795,601.605 250.285,600.923 251.264,599.756 C252.378,598.454 253.55,596.86 254.779,594.975 C256.217,592.756 257.587,590.475 258.889,588.131 C260.316,585.464 261.456,582.402 262.311,578.944 C263.279,575.433 263.764,571.855 263.764,568.209 C263.764,567.168 264.222,566.647 265.139,566.647 C265.337,566.647 265.758,566.746 266.404,566.944 C266.602,567.006 267.011,567.102 267.631,567.233 C268.251,567.363 268.753,567.49 269.139,567.615 C270.316,567.813 271.425,567.912 272.467,567.912"/>
<path class="TimeSig" d="M272.467,618.084 C274.415,618.084 276.074,617.858 277.443,617.405 C278.813,616.951 279.691,616.725 280.076,616.725 C280.535,616.725 280.894,616.855 281.154,617.115 C281.352,617.303 281.482,617.527 281.545,617.787 C281.545,617.923 281.477,618.121 281.342,618.381 L252.936,651.397 L269.623,651.397 L269.623,638.303 C269.623,637.459 269.852,636.74 270.311,636.147 C271.092,635.501 271.743,635.11 272.264,634.975 C273.107,634.589 274.149,633.678 275.389,632.24 C276.43,631.074 277.67,629.027 279.107,626.1 C279.295,625.704 279.587,625.506 279.982,625.506 C280.764,625.506 281.217,625.964 281.342,626.881 L281.342,651.397 L288.482,651.397 C289.389,651.397 289.91,651.881 290.045,652.85 C290.045,653.829 289.524,654.319 288.482,654.319 L281.342,654.319 L281.342,655.1 C281.342,657.704 281.993,659.918 283.295,661.74 C284.795,663.563 286.555,664.475 288.576,664.475 C289.357,664.475 289.748,664.865 289.748,665.647 C289.748,666.428 289.357,666.819 288.576,666.819 C287.212,666.819 284.998,666.626 281.936,666.24 C279.133,665.782 276.951,665.553 275.389,665.553 C273.764,665.553 271.581,665.782 268.842,666.24 C265.915,666.626 263.738,666.819 262.311,666.819 C261.529,666.819 261.139,666.428 261.139,665.647 C261.139,664.865 261.529,664.475 262.311,664.475 C264.321,664.475 266.076,663.563 267.576,661.74 C268.941,659.855 269.623,657.642 269.623,655.1 L269.623,654.319 L252.936,654.319 C251.821,654.319 251.04,654.058 250.592,653.537 C250.061,653.152 249.795,652.631 249.795,651.975 C249.795,651.777 250.285,651.095 251.264,649.928 C252.378,648.626 253.55,647.032 254.779,645.147 C256.217,642.928 257.587,640.647 258.889,638.303 C260.316,635.636 261.456,632.574 262.311,629.115 C263.279,625.605 263.764,622.027 263.764,618.381 C263.764,617.339 264.222,616.819 265.139,616.819 C265.337,616.819 265.758,616.918 266.404,617.115 C266.602,617.178 267.011,617.274 267.631,617.405 C268.251,617.535 268.753,617.662 269.139,617.787 C270.316,617.985 271.425,618.084 272.467,618.084"/>
<path class="Rest" d="M1747.68,616.733 L1712.13,616.733 C1711.48,616.733 1711.15,616.405 1711.15,615.748 L1711.15,602.076 C1711.15,601.431 1711.48,601.108 1712.13,601.108 L1747.68,601.108 C1748.33,601.108 1748.65,601.431 1748.65,602.076 L1748.65,615.748 C1748.65,616.405 1748.33,616.733 1747.68,616.733"/>
<path class="Rest" d="M1024.93,608.92 C1024.93,607.743 1025.59,606.441 1026.9,605.014 C1027.87,603.972 1029.3,602.733 1031.2,601.295 C1032.63,600.326 1034.02,598.863 1035.39,596.905 C1036.69,595.019 1037.34,592.967 1037.34,590.748 C1037.34,588.144 1036.5,585.837 1034.81,583.826 L1031.29,579.623 C1031.03,579.363 1030.9,579.037 1030.9,578.647 C1030.9,578.256 1031.09,577.899 1031.48,577.576 C1031.94,577.243 1032.33,577.076 1032.65,577.076 C1033.11,577.076 1033.47,577.274 1033.73,577.67 L1048.87,595.639 C1049.52,596.483 1049.84,597.326 1049.84,598.17 C1049.84,599.347 1049.19,600.649 1047.89,602.076 C1047.04,602.993 1045.65,604.233 1043.7,605.795 C1042.2,606.701 1040.77,608.165 1039.4,610.186 C1038.1,612.071 1037.45,614.123 1037.45,616.342 C1037.45,619.082 1038.23,621.394 1039.79,623.28 L1048.18,633.139 C1048.38,633.337 1048.54,633.665 1048.67,634.123 C1048.67,634.571 1048.51,634.962 1048.18,635.295 C1047.72,635.618 1047.33,635.78 1047.01,635.78 C1046.89,635.78 1046.37,635.42 1045.45,634.701 C1044.47,633.92 1043.17,633.17 1041.54,632.451 C1039.72,631.743 1037.93,631.389 1036.17,631.389 C1034.54,631.389 1033.21,631.842 1032.17,632.748 C1031.26,633.665 1030.81,635.425 1030.81,638.03 C1030.81,641.998 1031.75,645.123 1033.64,647.405 C1033.83,647.665 1033.87,647.988 1033.73,648.373 C1033.6,648.634 1033.38,648.764 1033.04,648.764 C1032.59,648.764 1031.59,647.592 1030.03,645.248 C1028.39,642.78 1026.86,639.946 1025.43,636.748 C1023.93,633.363 1023.18,630.566 1023.18,628.358 C1023.18,625.556 1024.52,624.155 1027.18,624.155 C1030.25,624.155 1034.22,625.196 1039.1,627.28 L1025.92,611.451 C1025.26,610.608 1024.93,609.764 1024.93,608.92"/>
</svg>
