<?xml version="1.0" encoding="UTF-8" standalone="no"?>
<svg width="595.44px" height="841.68px" viewBox="0 0 595.44 841.68"
 xmlns="http://www.w3.org/2000/svg" xmlns:xlink="http://www.w3.org/1999/xlink" version="1.2" baseProfile="tiny">
<title>Title</title>
<desc>Generated by MuseScore 2.1.0</desc>
<polyline class="StaffLines" fill="none" stroke="#000000" stroke-width="0.40" stroke-linejoin="bevel" points="28.3465,113.347 567.094,113.347"/>
<polyline class="StaffLines" fill="none" stroke="#000000" stroke-width="0.40" stroke-linejoin="bevel" points="28.3465,118.347 567.094,118.347"/>
<polyline class="StaffLines" fill="none" stroke="#000000" stroke-width="0.40" stroke-linejoin="bevel" points="28.3465,123.347 567.094,123.347"/>
<polyline class="StaffLines" fill="none" stroke="#000000" stroke-width="0.40" stroke-linejoin="bevel" points="28.3465,128.347 567.094,128.347"/>
<polyline class="StaffLines" fill="none" stroke="#000000" stroke-width="0.40" stroke-linejoin="bevel" points="28.3465,133.347 567.094,133.347"/>
<path class="Text" d="M519.501,70.4465 C519.501,69.2056 519.884,68.1974 520.651,67.4218 C521.418,66.6463 522.372,66.2585 523.515,66.2585 C524.028,66.2585 524.509,66.3212 524.958,66.4466 C525.407,66.5719 525.668,66.6346 525.74,66.6346 C526.004,66.6346 526.173,66.5092 526.245,66.2585 L526.497,66.2585 L526.605,68.9465 L526.329,68.9465 C525.888,67.4585 525.026,66.7145 523.743,66.7145 C522.869,66.7145 522.174,67.0385 521.657,67.6865 C521.139,68.3345 520.881,69.2025 520.881,70.2905 C520.881,70.9865 520.971,71.5885 521.151,72.0965 C521.332,72.6045 521.574,72.9885 521.879,73.2485 C522.184,73.5085 522.499,73.6965 522.823,73.8125 C523.148,73.9285 523.495,73.9865 523.864,73.9865 C524.809,73.9865 525.703,73.5825 526.545,72.7745 L526.761,72.9905 C526.392,73.4785 525.924,73.8545 525.354,74.1185 C524.785,74.3825 524.16,74.5145 523.479,74.5145 C522.297,74.5145 521.338,74.1425 520.603,73.3985 C519.868,72.6545 519.501,71.6705 519.501,70.4465 M530.051,68.8265 C530.824,68.8265 531.46,69.0826 531.96,69.5948 C532.459,70.107 532.709,70.7552 532.709,71.5396 C532.709,72.3712 532.449,73.067 531.93,73.6268 C531.41,74.1866 530.776,74.4665 530.027,74.4665 C529.278,74.4665 528.649,74.1965 528.142,73.6566 C527.635,73.1166 527.381,72.4427 527.381,71.6347 C527.381,70.8107 527.628,70.1366 528.124,69.6126 C528.619,69.0885 529.261,68.8265 530.051,68.8265 M528.485,71.0523 C528.485,71.9001 528.64,72.621 528.951,73.2152 C529.262,73.8094 529.668,74.1065 530.17,74.1065 C530.617,74.1065 530.967,73.9163 531.222,73.536 C531.477,73.1557 531.605,72.6289 531.605,71.9555 C531.605,71.1395 531.445,70.474 531.127,69.959 C530.808,69.444 530.398,69.1865 529.895,69.1865 C529.473,69.1865 529.132,69.3568 528.873,69.6975 C528.614,70.0382 528.485,70.4898 528.485,71.0523 M533.237,69.5945 L533.237,69.3905 C533.813,69.2234 534.377,69.0354 534.927,68.8265 L535.012,68.8511 L535.013,69.7736 C535.506,69.3882 535.872,69.134 536.111,69.011 C536.35,68.888 536.6,68.8265 536.863,68.8265 C537.499,68.8265 537.926,69.1701 538.143,69.8572 C538.765,69.1701 539.414,68.8265 540.091,68.8265 C541.026,68.8265 541.493,69.5441 541.493,70.9792 L541.493,73.4382 C541.493,73.884 541.662,74.1188 542.001,74.1427 L542.309,74.1665 L542.309,74.3465 L539.693,74.3465 L539.693,74.1665 C540.039,74.1267 540.256,74.0591 540.343,73.9635 C540.429,73.868 540.473,73.6491 540.473,73.3068 L540.473,70.7877 C540.473,70.2942 540.409,69.952 540.282,69.761 C540.155,69.57 539.92,69.4745 539.578,69.4745 C539.053,69.4745 538.619,69.7174 538.277,70.2033 L538.277,73.2116 C538.277,73.5856 538.334,73.8362 538.448,73.9635 C538.563,74.0908 538.79,74.1585 539.129,74.1665 L539.129,74.3465 L536.453,74.3465 L536.453,74.1665 C536.792,74.1426 537.011,74.0789 537.109,73.9754 C537.208,73.8719 537.257,73.6531 537.257,73.3188 L537.257,70.7281 C537.257,69.8924 536.994,69.4745 536.469,69.4745 C536.246,69.4745 535.998,69.5302 535.723,69.6417 C535.449,69.7532 535.228,69.9325 535.061,70.1795 L535.061,73.5457 C535.061,73.7766 535.116,73.9338 535.226,74.0173 C535.337,74.1009 535.55,74.1506 535.865,74.1665 L535.865,74.3465 L533.213,74.3465 L533.213,74.1665 C533.544,74.1585 533.765,74.0988 533.875,73.9874 C533.986,73.8761 534.041,73.6572 534.041,73.3308 L534.041,70.3106 C534.041,70.0241 534.011,69.8251 533.951,69.7136 C533.891,69.6022 533.781,69.5465 533.621,69.5465 C533.501,69.5465 533.373,69.5625 533.237,69.5945 M542.261,69.6305 L542.261,69.4385 C542.765,69.2865 543.34,69.0825 543.988,68.8265 L544.061,68.8505 L544.061,69.7752 C544.571,69.1427 545.144,68.8265 545.781,68.8265 C546.36,68.8265 546.836,69.0674 547.209,69.5491 C547.582,70.0309 547.769,70.6451 547.769,71.3919 C547.769,72.2612 547.529,72.991 547.048,73.5812 C546.568,74.1714 545.974,74.4665 545.267,74.4665 C545.013,74.4665 544.799,74.4321 544.628,74.3634 C544.457,74.2946 544.268,74.1647 544.061,73.9737 L544.061,75.842 C544.061,76.2149 544.124,76.4549 544.251,76.562 C544.377,76.6691 544.662,76.7266 545.105,76.7345 L545.105,76.9505 L542.201,76.9505 L542.201,76.7465 C542.553,76.7145 542.781,76.6465 542.885,76.5425 C542.989,76.4385 543.041,76.2305 543.041,75.9185 L543.041,70.3025 C543.041,70.0225 543.009,69.8385 542.946,69.7505 C542.883,69.6625 542.753,69.6185 542.556,69.6185 C542.43,69.6185 542.332,69.6225 542.261,69.6305 M544.061,70.3426 L544.061,73.3104 C544.061,73.4872 544.198,73.6641 544.473,73.8411 C544.748,74.018 545.024,74.1065 545.303,74.1065 C545.733,74.1065 546.082,73.8994 546.349,73.4852 C546.615,73.071 546.749,72.5301 546.749,71.8625 C546.749,71.1629 546.615,70.602 546.349,70.1798 C546.082,69.7576 545.725,69.5465 545.279,69.5465 C545.001,69.5465 544.728,69.635 544.461,69.8119 C544.194,69.9888 544.061,70.1657 544.061,70.3426 M551.051,68.8265 C551.824,68.8265 552.46,69.0826 552.96,69.5948 C553.459,70.107 553.709,70.7552 553.709,71.5396 C553.709,72.3712 553.449,73.067 552.93,73.6268 C552.41,74.1866 551.776,74.4665 551.027,74.4665 C550.278,74.4665 549.649,74.1965 549.142,73.6566 C548.635,73.1166 548.381,72.4427 548.381,71.6347 C548.381,70.8107 548.628,70.1366 549.124,69.6126 C549.619,69.0885 550.261,68.8265 551.051,68.8265 M549.485,71.0523 C549.485,71.9001 549.64,72.621 549.951,73.2152 C550.262,73.8094 550.668,74.1065 551.17,74.1065 C551.617,74.1065 551.967,73.9163 552.222,73.536 C552.477,73.1557 552.605,72.6289 552.605,71.9555 C552.605,71.1395 552.445,70.474 552.127,69.959 C551.808,69.444 551.398,69.1865 550.895,69.1865 C550.473,69.1865 550.132,69.3568 549.873,69.6975 C549.614,70.0382 549.485,70.4898 549.485,71.0523 M557.297,69.0665 C557.305,69.0665 557.369,69.0265 557.489,68.9465 L557.621,68.9465 L557.669,70.5785 L557.489,70.5785 C557.353,70.0425 557.185,69.6625 556.985,69.4385 C556.785,69.2145 556.513,69.1025 556.169,69.1025 C555.897,69.1025 555.675,69.1785 555.503,69.3305 C555.331,69.4825 555.245,69.6785 555.245,69.9185 C555.245,70.2625 555.417,70.5345 555.761,70.7345 L557.057,71.5025 C557.417,71.7185 557.675,71.9365 557.831,72.1565 C557.987,72.3765 558.065,72.6345 558.065,72.9305 C558.065,73.3465 557.899,73.7065 557.567,74.0105 C557.235,74.3145 556.837,74.4665 556.373,74.4665 C556.173,74.4665 555.905,74.4305 555.569,74.3585 C555.233,74.2865 555.025,74.2505 554.945,74.2505 C554.825,74.2505 554.733,74.2985 554.669,74.3945 L554.513,74.3945 L554.513,72.5225 L554.705,72.5225 C554.833,73.0825 554.985,73.4785 555.161,73.7105 C555.417,74.0385 555.773,74.2025 556.229,74.2025 C556.533,74.2025 556.775,74.1245 556.955,73.9685 C557.135,73.8125 557.225,73.6025 557.225,73.3385 C557.225,72.9785 557.017,72.6785 556.601,72.4385 L555.905,72.0425 C555.393,71.7545 555.031,71.4785 554.819,71.2145 C554.607,70.9505 554.501,70.6505 554.501,70.3145 C554.501,69.8825 554.655,69.5285 554.963,69.2525 C555.271,68.9765 555.661,68.8385 556.133,68.8385 C556.397,68.8385 556.645,68.8765 556.877,68.9525 C557.109,69.0285 557.249,69.0665 557.297,69.0665 M559.317,71.0225 C559.333,71.5172 559.401,71.9433 559.521,72.3006 C559.641,72.6579 559.797,72.9249 559.989,73.1016 C560.181,73.2783 560.375,73.4039 560.571,73.4786 C560.767,73.5532 560.973,73.5905 561.189,73.5905 C561.573,73.5905 561.907,73.4962 562.191,73.3077 C562.475,73.1192 562.761,72.8012 563.049,72.3536 L563.241,72.4361 C562.993,73.0926 562.649,73.5951 562.209,73.9436 C561.769,74.2922 561.265,74.4665 560.697,74.4665 C560.009,74.4665 559.451,74.2232 559.023,73.7367 C558.595,73.2502 558.381,72.5929 558.381,71.7646 C558.381,70.8807 558.627,70.1701 559.119,69.6326 C559.611,69.0952 560.225,68.8265 560.961,68.8265 C561.569,68.8265 562.041,69.0085 562.377,69.3725 C562.713,69.7365 562.925,70.2865 563.013,71.0225 L559.317,71.0225 M559.341,70.6625 L561.789,70.6625 C561.709,70.1425 561.585,69.7825 561.417,69.5825 C561.249,69.3825 560.981,69.2825 560.613,69.2825 C559.893,69.2825 559.469,69.7425 559.341,70.6625 M566.705,70.0025 C566.585,70.0025 566.437,69.9265 566.261,69.7745 C566.085,69.6225 565.969,69.5465 565.913,69.5465 C565.753,69.5465 565.573,69.6634 565.373,69.8972 C565.173,70.131 565.073,70.3447 565.073,70.5382 L565.073,73.2594 C565.073,73.6061 565.14,73.84 565.274,73.9609 C565.409,74.0818 565.678,74.1504 566.081,74.1665 L566.081,74.3465 L563.213,74.3465 L563.213,74.1665 C563.591,74.0939 563.826,74.0132 563.917,73.9245 C564.007,73.8358 564.053,73.6383 564.053,73.3319 L564.053,70.3081 C564.053,70.0421 564.023,69.8547 563.963,69.7458 C563.903,69.6369 563.797,69.5825 563.645,69.5825 C563.517,69.5825 563.377,69.5987 563.225,69.6312 L563.225,69.4436 C563.866,69.2454 564.462,69.0397 565.012,68.8265 L565.073,68.8497 L565.073,69.9215 C565.369,69.5099 565.621,69.2245 565.829,69.0653 C566.037,68.9061 566.265,68.8265 566.513,68.8265 C566.721,68.8265 566.883,68.8825 566.999,68.9945 C567.115,69.1065 567.173,69.2625 567.173,69.4625 C567.173,69.6305 567.131,69.7625 567.047,69.8585 C566.963,69.9545 566.849,70.0025 566.705,70.0025"/>
<path class="Text" d="M280.754,35.5145 L279.458,35.5145 C278.114,35.5145 277.214,35.6956 276.758,36.0578 C276.302,36.4201 275.93,37.247 275.642,38.5385 L275.066,38.5385 L275.21,34.4585 L288.746,34.4585 L288.89,38.5385 L288.314,38.5385 C288.042,37.2312 287.678,36.4004 287.222,36.046 C286.766,35.6916 285.858,35.5145 284.498,35.5145 L283.202,35.5145 L283.202,47.7376 C283.202,48.6146 283.338,49.1807 283.61,49.436 C283.882,49.6912 284.514,49.8427 285.506,49.8905 L285.506,50.3465 L278.498,50.3465 L278.498,49.8905 C279.49,49.8267 280.114,49.6633 280.37,49.4001 C280.626,49.137 280.754,48.4952 280.754,47.4747 L280.754,35.5145 M291.204,40.9145 C290.857,40.9145 290.526,40.9385 290.21,40.9865 L290.21,40.6265 C291.33,40.3065 292.569,39.8665 293.929,39.3065 L294.026,39.3785 L294.026,47.8985 C294.026,48.7625 294.124,49.3105 294.322,49.5425 C294.519,49.7745 295.004,49.9225 295.778,49.9865 L295.778,50.3465 L290.09,50.3465 L290.09,49.9865 C290.922,49.9385 291.446,49.7945 291.662,49.5545 C291.878,49.3145 291.986,48.7625 291.986,47.8985 L291.986,42.3305 C291.986,41.8025 291.927,41.4345 291.808,41.2265 C291.69,41.0185 291.489,40.9145 291.204,40.9145 M292.787,33.9545 C293.143,33.9545 293.443,34.0745 293.686,34.3145 C293.928,34.5545 294.05,34.8425 294.05,35.1785 C294.05,35.5305 293.928,35.8225 293.686,36.0545 C293.443,36.2865 293.143,36.4025 292.787,36.4025 C292.449,36.4025 292.163,36.2825 291.929,36.0425 C291.695,35.8025 291.578,35.5145 291.578,35.1785 C291.578,34.8425 291.699,34.5545 291.941,34.3145 C292.183,34.0745 292.465,33.9545 292.787,33.9545 M302.922,39.5465 L302.922,40.2665 L300.522,40.2665 L300.522,47.1305 C300.522,47.8825 300.618,48.4305 300.81,48.7745 C301.002,49.1185 301.322,49.2905 301.77,49.2905 C302.266,49.2905 302.746,49.0105 303.21,48.4505 L303.522,48.7145 C302.754,49.9625 301.794,50.5865 300.642,50.5865 C299.202,50.5865 298.482,49.5657 298.482,47.5242 L298.482,40.2665 L297.232,40.2665 C297.169,40.2215 297.138,40.169 297.138,40.109 C297.138,40.034 297.162,39.974 297.21,39.929 C297.258,39.884 297.349,39.8202 297.485,39.7377 C297.621,39.6552 297.784,39.5369 297.975,39.3828 C298.167,39.2286 298.43,38.9488 298.765,38.5433 C299.1,38.1378 299.467,37.6513 299.866,37.0838 C300.125,36.7106 300.287,36.4835 300.352,36.4025 C300.465,36.4025 300.522,36.5081 300.522,36.7193 L300.522,39.5465 L302.922,39.5465 M303.97,35.3945 L303.97,35.0105 C305.553,34.6265 306.825,34.2745 307.785,33.9545 L307.882,34.0025 L307.882,48.3305 C307.882,48.9865 307.988,49.4145 308.202,49.6145 C308.415,49.8145 308.9,49.9385 309.658,49.9865 L309.658,50.3465 L303.994,50.3465 L303.994,49.9865 C304.746,49.9225 305.242,49.7785 305.482,49.5545 C305.722,49.3305 305.842,48.8985 305.842,48.2585 L305.842,36.8105 C305.842,36.2505 305.771,35.8665 305.629,35.6585 C305.487,35.4505 305.226,35.3465 304.847,35.3465 C304.531,35.3465 304.238,35.3625 303.97,35.3945 M312.178,43.6985 C312.21,44.688 312.346,45.54 312.586,46.2546 C312.826,46.9693 313.138,47.5033 313.522,47.8566 C313.906,48.21 314.294,48.4613 314.686,48.6106 C315.078,48.7598 315.49,48.8345 315.922,48.8345 C316.69,48.8345 317.358,48.646 317.926,48.269 C318.494,47.892 319.066,47.2558 319.642,46.3606 L320.026,46.5256 C319.53,47.8386 318.842,48.8436 317.962,49.5408 C317.082,50.2379 316.074,50.5865 314.938,50.5865 C313.562,50.5865 312.446,50.1 311.59,49.127 C310.734,48.154 310.306,46.8392 310.306,45.1827 C310.306,43.415 310.798,41.9936 311.782,40.9188 C312.766,39.8439 313.994,39.3065 315.466,39.3065 C316.682,39.3065 317.626,39.6705 318.298,40.3985 C318.97,41.1265 319.394,42.2265 319.57,43.6985 L312.178,43.6985 M312.226,42.9785 L317.122,42.9785 C316.962,41.9385 316.714,41.2185 316.378,40.8185 C316.042,40.4185 315.506,40.2185 314.77,40.2185 C313.33,40.2185 312.482,41.1385 312.226,42.9785"/>
<polyline class="BarLine" fill="none" stroke="#000000" stroke-width="0.80" stroke-linejoin="bevel" points="562.194,113.347 562.194,133.347"/>
<polyline class="BarLine" fill="none" stroke="#000000" stroke-width="2.50" stroke-linejoin="bevel" points="565.844,113.347 565.844,133.347"/>
<polyline class="Stem" fill="none" stroke="#000000" stroke-width="0.65" stroke-linecap="round" stroke-linejoin="bevel" points="66.259,121.786 66.259,137.097"/>
<path class="Note" d="M70.3285,118.093 C70.9535,118.093 71.4809,118.255 71.9105,118.581 C72.3142,118.932 72.516,119.375 72.516,119.909 C72.516,120.807 72.0538,121.647 71.1293,122.429 C70.1918,123.21 69.1892,123.6 68.1215,123.6 C67.4965,123.6 66.9691,123.438 66.5394,123.112 C66.1358,122.761 65.934,122.318 65.934,121.784 C65.934,120.886 66.4027,120.046 67.3402,119.264 C68.2517,118.483 69.2478,118.093 70.3285,118.093"/>
<path class="Clef" d="M38.8902,123.229 C38.8902,123.229 38.9293,123.229 39.0074,123.229 C39.0595,123.216 39.1051,123.21 39.1441,123.21 C40.6024,123.21 41.8004,123.724 42.7379,124.753 C43.6754,125.768 44.1441,126.953 44.1441,128.307 C44.1441,129.987 43.4475,131.354 42.0543,132.409 C41.6897,132.695 41.2144,132.93 40.6285,133.112 C40.6936,133.958 40.7261,134.642 40.7261,135.163 C40.7261,135.267 40.7131,135.645 40.6871,136.296 C40.635,137.507 40.2183,138.555 39.4371,139.44 C38.6819,140.313 37.7444,140.749 36.6246,140.749 C35.5699,140.749 34.6715,140.378 33.9293,139.636 C33.1871,138.88 32.816,137.969 32.816,136.901 C32.816,136.341 33.0308,135.866 33.4605,135.475 C33.9032,135.085 34.4176,134.889 35.0035,134.889 C35.5243,134.889 35.9605,135.091 36.3121,135.495 C36.6767,135.873 36.859,136.341 36.859,136.901 C36.859,137.409 36.6767,137.845 36.3121,138.21 C35.9475,138.574 35.5113,138.757 35.0035,138.757 C34.7952,138.757 34.5933,138.718 34.398,138.639 C34.9709,139.486 35.7327,139.909 36.6832,139.909 C37.5816,139.909 38.3173,139.544 38.8902,138.815 C39.4892,138.06 39.8147,137.181 39.8668,136.179 C39.8928,135.554 39.9058,135.195 39.9058,135.104 C39.9058,134.375 39.8798,133.776 39.8277,133.307 C39.1767,133.412 38.5972,133.464 38.0894,133.464 C36.2795,133.464 34.7366,132.748 33.4605,131.315 C32.2105,129.87 31.5855,128.151 31.5855,126.159 C31.5855,125.742 31.6246,125.319 31.7027,124.889 C31.7808,124.538 31.8785,124.154 31.9957,123.737 C32.0608,123.503 32.2366,123.125 32.523,122.604 C32.6272,122.448 32.7444,122.253 32.8746,122.018 C33.0048,121.784 33.0959,121.628 33.148,121.55 C33.2782,121.289 33.5321,120.938 33.9097,120.495 C34.0139,120.378 34.1213,120.248 34.232,120.104 C34.3427,119.961 34.4371,119.844 34.5152,119.753 C34.5933,119.662 34.6519,119.59 34.691,119.538 C34.7301,119.486 35.023,119.141 35.5699,118.503 C35.7001,118.373 35.8271,118.233 35.9508,118.083 C36.0745,117.933 36.1754,117.816 36.2535,117.731 C36.3316,117.647 36.3902,117.585 36.4293,117.546 C35.9605,115.996 35.6676,114.759 35.5504,113.835 C35.4592,113.093 35.4136,112.077 35.4136,110.788 C35.4136,109.655 35.6741,108.594 36.1949,107.604 C36.7027,106.576 37.4123,105.736 38.3238,105.085 C38.3889,105.046 38.454,105.026 38.5191,105.026 C38.6103,105.026 38.6754,105.046 38.7144,105.085 C39.4176,105.931 40.023,107.031 40.5308,108.386 C41.0517,109.74 41.3121,110.97 41.3121,112.077 C41.3121,113.327 41.0126,114.499 40.4136,115.593 C39.7366,116.751 38.8642,117.949 37.7965,119.186 C38.0699,120.046 38.4345,121.393 38.8902,123.229 M40.5504,132.311 C41.2274,132.064 41.7548,131.641 42.1324,131.042 C42.5491,130.469 42.7574,129.824 42.7574,129.108 C42.7574,128.184 42.4449,127.363 41.8199,126.647 C41.1819,125.905 40.3681,125.488 39.3785,125.397 C39.9384,128.145 40.329,130.449 40.5504,132.311 M32.9918,127.8 C32.9918,129.089 33.5126,130.222 34.5543,131.198 C35.622,132.149 36.8199,132.624 38.148,132.624 C38.6949,132.624 39.2288,132.585 39.7496,132.507 C39.5413,130.528 39.1311,128.158 38.5191,125.397 C37.7769,125.475 37.1845,125.736 36.7418,126.179 C36.3121,126.634 36.0972,127.149 36.0972,127.722 C36.0972,128.711 36.6246,129.512 37.6793,130.124 C37.7704,130.215 37.816,130.313 37.816,130.417 C37.816,130.521 37.7704,130.619 37.6793,130.71 C37.6011,130.801 37.5035,130.847 37.3863,130.847 C37.3733,130.847 37.3147,130.833 37.2105,130.807 C36.4683,130.404 35.8954,129.883 35.4918,129.245 C35.1142,128.568 34.9254,127.884 34.9254,127.194 C34.9254,126.296 35.2053,125.482 35.7652,124.753 C36.3511,124.024 37.1129,123.555 38.0504,123.347 C37.6858,121.888 37.3863,120.749 37.1519,119.929 C36.9436,120.163 36.6929,120.446 36.4,120.778 C36.107,121.11 35.9345,121.309 35.8824,121.374 C35.4136,121.986 35.0556,122.461 34.8082,122.8 C34.3655,123.412 34.0399,123.939 33.8316,124.382 C33.6103,124.876 33.4149,125.417 33.2457,126.003 C33.0764,126.563 32.9918,127.162 32.9918,127.8 M39.5152,107.936 C38.5386,108.418 37.7704,109.108 37.2105,110.007 C36.6376,110.931 36.3511,111.927 36.3511,112.995 C36.3511,113.932 36.5855,115.195 37.0543,116.784 C37.9918,115.651 38.6949,114.603 39.1636,113.639 C39.6584,112.624 39.9058,111.563 39.9058,110.456 C39.9058,109.623 39.7756,108.783 39.5152,107.936"/>
<path class="TimeSig" d="M53.6762,113.6 C54.0668,113.6 54.3988,113.555 54.6723,113.464 C54.9457,113.373 55.1215,113.327 55.1996,113.327 C55.2907,113.327 55.3624,113.353 55.4144,113.405 C55.4535,113.444 55.4795,113.49 55.4926,113.542 C55.4926,113.568 55.4795,113.607 55.4535,113.659 L49.7699,120.261 L53.1098,120.261 L53.1098,117.643 C53.1098,117.474 53.1553,117.331 53.2465,117.214 C53.4027,117.083 53.5329,117.005 53.6371,116.979 C53.8064,116.901 54.0147,116.719 54.2621,116.432 C54.4704,116.198 54.7178,115.788 55.0043,115.202 C55.0433,115.124 55.1019,115.085 55.1801,115.085 C55.3363,115.085 55.4275,115.176 55.4535,115.358 L55.4535,120.261 L56.8793,120.261 C57.0616,120.261 57.1657,120.358 57.1918,120.554 C57.1918,120.749 57.0876,120.847 56.8793,120.847 L55.4535,120.847 L55.4535,121.003 C55.4535,121.524 55.5837,121.966 55.8441,122.331 C56.1436,122.695 56.4952,122.878 56.8988,122.878 C57.0551,122.878 57.1332,122.956 57.1332,123.112 C57.1332,123.268 57.0551,123.347 56.8988,123.347 C56.6254,123.347 56.1827,123.307 55.5707,123.229 C55.0108,123.138 54.5746,123.093 54.2621,123.093 C53.9366,123.093 53.5004,123.138 52.9535,123.229 C52.3676,123.307 51.9314,123.347 51.6449,123.347 C51.4887,123.347 51.4105,123.268 51.4105,123.112 C51.4105,122.956 51.4887,122.878 51.6449,122.878 C52.0486,122.878 52.4001,122.695 52.6996,122.331 C52.973,121.966 53.1098,121.524 53.1098,121.003 L53.1098,120.847 L49.7699,120.847 C49.5486,120.847 49.3923,120.794 49.3012,120.69 C49.197,120.612 49.1449,120.508 49.1449,120.378 C49.1449,120.339 49.2426,120.202 49.4379,119.968 C49.6592,119.707 49.8936,119.388 50.141,119.011 C50.4275,118.568 50.7009,118.112 50.9613,117.643 C51.2478,117.11 51.4756,116.498 51.6449,115.807 C51.8402,115.104 51.9379,114.388 51.9379,113.659 C51.9379,113.451 52.029,113.347 52.2113,113.347 C52.2504,113.347 52.335,113.366 52.4652,113.405 C52.5043,113.418 52.5857,113.438 52.7094,113.464 C52.8331,113.49 52.934,113.516 53.0121,113.542 C53.2465,113.581 53.4678,113.6 53.6762,113.6"/>
<path class="TimeSig" d="M53.6762,123.6 C54.0668,123.6 54.3988,123.555 54.6723,123.464 C54.9457,123.373 55.1215,123.327 55.1996,123.327 C55.2907,123.327 55.3624,123.353 55.4144,123.405 C55.4535,123.444 55.4795,123.49 55.4926,123.542 C55.4926,123.568 55.4795,123.607 55.4535,123.659 L49.7699,130.261 L53.1098,130.261 L53.1098,127.643 C53.1098,127.474 53.1553,127.331 53.2465,127.214 C53.4027,127.083 53.5329,127.005 53.6371,126.979 C53.8064,126.901 54.0147,126.719 54.2621,126.432 C54.4704,126.198 54.7178,125.788 55.0043,125.202 C55.0433,125.124 55.1019,125.085 55.1801,125.085 C55.3363,125.085 55.4275,125.176 55.4535,125.358 L55.4535,130.261 L56.8793,130.261 C57.0616,130.261 57.1657,130.358 57.1918,130.554 C57.1918,130.749 57.0876,130.847 56.8793,130.847 L55.4535,130.847 L55.4535,131.003 C55.4535,131.524 55.5837,131.966 55.8441,132.331 C56.1436,132.695 56.4952,132.878 56.8988,132.878 C57.0551,132.878 57.1332,132.956 57.1332,133.112 C57.1332,133.268 57.0551,133.347 56.8988,133.347 C56.6254,133.347 56.1827,133.307 55.5707,133.229 C55.0108,133.138 54.5746,133.093 54.2621,133.093 C53.9366,133.093 53.5004,133.138 52.9535,133.229 C52.3676,133.307 51.9314,133.347 51.6449,133.347 C51.4887,133.347 51.4105,133.268 51.4105,133.112 C51.4105,132.956 51.4887,132.878 51.6449,132.878 C52.0486,132.878 52.4001,132.695 52.6996,132.331 C52.973,131.966 53.1098,131.524 53.1098,131.003 L53.1098,130.847 L49.7699,130.847 C49.5486,130.847 49.3923,130.794 49.3012,130.69 C49.197,130.612 49.1449,130.508 49.1449,130.378 C49.1449,130.339 49.2426,130.202 49.4379,129.968 C49.6592,129.707 49.8936,129.388 50.141,129.011 C50.4275,128.568 50.7009,128.112 50.9613,127.643 C51.2478,127.11 51.4756,126.498 51.6449,125.807 C51.8402,125.104 51.9379,124.388 51.9379,123.659 C51.9379,123.451 52.029,123.347 52.2113,123.347 C52.2504,123.347 52.335,123.366 52.4652,123.405 C52.5043,123.418 52.5857,123.438 52.7094,123.464 C52.8331,123.49 52.934,123.516 53.0121,123.542 C53.2465,123.581 53.4678,123.6 53.6762,123.6"/>
<path class="Rest" d="M348.716,123.347 L341.607,123.347 C341.477,123.347 341.412,123.281 341.412,123.151 L341.412,120.417 C341.412,120.287 341.477,120.222 341.607,120.222 L348.716,120.222 C348.846,120.222 348.912,120.287 348.912,120.417 L348.912,123.151 C348.912,123.281 348.846,123.347 348.716,123.347"/>
<path class="Rest" d="M203.556,121.784 C203.556,121.55 203.686,121.289 203.946,121.003 C204.141,120.794 204.428,120.547 204.806,120.261 C205.092,120.065 205.372,119.772 205.645,119.382 C205.906,119.004 206.036,118.594 206.036,118.151 C206.036,117.63 205.867,117.168 205.528,116.764 L204.825,115.925 C204.773,115.873 204.747,115.807 204.747,115.729 C204.747,115.651 204.786,115.58 204.864,115.514 C204.955,115.449 205.033,115.417 205.099,115.417 C205.19,115.417 205.261,115.456 205.313,115.534 L208.341,119.128 C208.471,119.297 208.536,119.466 208.536,119.636 C208.536,119.87 208.406,120.13 208.145,120.417 C207.976,120.599 207.696,120.847 207.306,121.159 C207.006,121.341 206.72,121.634 206.446,122.038 C206.186,122.416 206.056,122.826 206.056,123.268 C206.056,123.815 206.212,124.278 206.524,124.655 L208.204,126.628 C208.243,126.667 208.276,126.732 208.302,126.823 C208.302,126.914 208.269,126.992 208.204,127.057 C208.113,127.123 208.035,127.155 207.97,127.155 C207.944,127.155 207.839,127.083 207.657,126.94 C207.462,126.784 207.201,126.634 206.876,126.491 C206.511,126.348 206.153,126.276 205.802,126.276 C205.476,126.276 205.209,126.367 205.001,126.55 C204.819,126.732 204.727,127.083 204.727,127.604 C204.727,128.399 204.916,129.024 205.294,129.479 C205.333,129.531 205.339,129.597 205.313,129.675 C205.287,129.727 205.242,129.753 205.177,129.753 C205.086,129.753 204.884,129.518 204.571,129.05 C204.246,128.555 203.94,127.988 203.653,127.35 C203.354,126.673 203.204,126.113 203.204,125.671 C203.204,125.111 203.471,124.831 204.005,124.831 C204.617,124.831 205.411,125.039 206.388,125.456 L203.751,122.292 C203.621,122.123 203.556,121.953 203.556,121.784"/>
</svg>
