<?xml version="1.0" encoding="UTF-8" standalone="no"?>
<svg
   xmlns:dc="http://purl.org/dc/elements/1.1/"
   xmlns:cc="http://creativecommons.org/ns#"
   xmlns:rdf="http://www.w3.org/1999/02/22-rdf-syntax-ns#"
   xmlns:svg="http://www.w3.org/2000/svg"
   xmlns="http://www.w3.org/2000/svg"
   xmlns:sodipodi="http://sodipodi.sourceforge.net/DTD/sodipodi-0.dtd"
   xmlns:inkscape="http://www.inkscape.org/namespaces/inkscape"
   width="595.44px"
   height="841.68px"
   viewBox="0 0 595.44 841.68"
   version="1.2"
   id="svg90"
   sodipodi:docname="quarter.svg"
   inkscape:version="0.92.2 (5c3e80d, 2017-08-06)">
  <metadata
     id="metadata96">
    <rdf:RDF>
      <cc:Work
         rdf:about="">
        <dc:format>image/svg+xml</dc:format>
        <dc:type
           rdf:resource="http://purl.org/dc/dcmitype/StillImage" />
      </cc:Work>
    </rdf:RDF>
  </metadata>
  <defs
     id="defs94" />
  <sodipodi:namedview
     pagecolor="#ffffff"
     bordercolor="#666666"
     borderopacity="1"
     objecttolerance="10"
     gridtolerance="10"
     guidetolerance="10"
     inkscape:pageopacity="0"
     inkscape:pageshadow="2"
     inkscape:window-width="1920"
     inkscape:window-height="1001"
     id="namedview92"
     showgrid="false"
     inkscape:zoom="1.91"
     inkscape:cx="297.72"
     inkscape:cy="659.03591"
     inkscape:window-x="-9"
     inkscape:window-y="-9"
     inkscape:window-maximized="1"
     inkscape:current-layer="svg90" />
  <title
     id="title54">Title</title>
  <desc
     id="desc56">Generated by MuseScore 2.1.0</desc>
  <polyline
     class="Stem"
     points="66.259,121.786 66.259,137.097"
     id="polyline76"
     transform="matrix(3,0,0,3,-138.44997,-255.51963)"
     style="fill:none;stroke:#000000;stroke-width:0.64999998;stroke-linecap:round;stroke-linejoin:bevel" />
  <path
     class="Note"
     d="m 72.535532,98.759371 c 1.875,0 3.4572,0.486 4.746,1.463999 1.2111,1.053 1.8165,2.382 1.8165,3.984 0,2.694 -1.3866,5.214 -4.1601,7.56 -2.8125,2.343 -5.8203,3.513 -9.0234,3.513 -1.875,0 -3.4572,-0.486 -4.7463,-1.464 -1.2108,-1.053 -1.8162,-2.382 -1.8162,-3.984 0,-2.694 1.4061,-5.214 4.2186,-7.56 2.7345,-2.342999 5.7228,-3.512999 8.9649,-3.512999"
     id="path78"
     inkscape:connector-curvature="0"
     style="stroke-width:3" />
</svg>
